<?xml version="1.0" standalone="no"?>
<!DOCTYPE svg PUBLIC "-//W3C//DTD SVG 20010904//EN"
 "http://www.w3.org/TR/2001/REC-SVG-20010904/DTD/svg10.dtd">
<svg version="1.0" xmlns="http://www.w3.org/2000/svg"
 width="1280.000000pt" height="683.000000pt" viewBox="0 0 1280.000000 683.000000"
 preserveAspectRatio="xMidYMid meet">

<g transform="translate(0.000000,683.000000) scale(0.100000,-0.100000)"
fill="#000000" stroke="none">
<path d="M0 3415 l0 -3415 4305 0 c4244 0 4305 0 4305 19 0 36 -19 73 -35 67
-19 -7 -31 14 -14 25 31 19 48 10 59 -33 6 -24 13 -51 16 -60 5 -16 20 -18
128 -18 74 0 126 4 133 11 8 8 13 8 17 0 5 -8 561 -11 1947 -11 l1939 0 0
3415 0 3415 -6400 0 -6400 0 0 -3415z m5286 2813 c8 -15 14 -39 14 -53 0 -30
-26 -85 -40 -85 -13 0 -13 1 6 39 21 42 12 91 -25 130 -16 17 -26 33 -23 36 8
8 51 -35 68 -67z m122 14 c2 -7 -3 -12 -12 -12 -9 0 -16 7 -16 16 0 17 22 14
28 -4z m-565 -9 c-7 -2 -19 -2 -25 0 -7 3 -2 5 12 5 14 0 19 -2 13 -5z m302
-13 c4 -6 -6 -10 -22 -9 -25 0 -26 1 -8 9 11 5 21 9 22 9 1 1 5 -3 8 -9z
m-532 -17 c-7 -2 -19 -2 -25 0 -7 3 -2 5 12 5 14 0 19 -2 13 -5z m400 0 c-7
-2 -21 -2 -30 0 -10 3 -4 5 12 5 17 0 24 -2 18 -5z m167 -23 c0 -5 -17 -9 -37
-9 l-38 2 35 7 c19 4 36 8 38 9 1 0 2 -3 2 -9z m-430 -4 c0 -2 -13 -6 -29 -8
-17 -2 -28 -1 -25 4 5 8 54 12 54 4z m675 -25 c0 -13 -8 -29 -17 -35 -24 -14
-36 1 -13 18 12 9 15 15 7 20 -18 11 -14 28 6 24 10 -2 17 -12 17 -27z m-1247
-9 c4 -25 -13 -30 -22 -6 -9 25 -7 36 7 32 6 -3 13 -14 15 -26z m447 8 c-3 -5
-11 -10 -16 -10 -6 0 -7 5 -4 10 3 6 11 10 16 10 6 0 7 -4 4 -10z m-62 -7 c-7
-2 -19 -2 -25 0 -7 3 -2 5 12 5 14 0 19 -2 13 -5z m-550 -63 c8 -67 12 -72 53
-64 21 4 34 2 34 -4 0 -10 -77 -28 -86 -20 -5 6 -24 106 -24 130 0 39 17 7 23
-42z m-60 -17 c15 -63 15 -85 1 -70 -4 3 -9 27 -12 52 -3 33 -8 45 -18 41 -14
-6 -20 25 -7 37 14 15 20 4 36 -60z m780 60 c-7 -2 -19 -2 -25 0 -7 3 -2 5 12
5 14 0 19 -2 13 -5z m414 1 c-3 -3 -12 -4 -19 -1 -8 3 -5 6 6 6 11 1 17 -2 13
-5z m-1362 -50 l-18 -35 33 -34 c37 -39 22 -49 -18 -12 -15 13 -26 18 -29 11
-2 -6 -10 -20 -18 -30 -21 -30 -28 -10 -9 30 l18 36 -29 30 c-22 23 -25 30
-12 30 9 0 23 -10 31 -22 9 -12 17 -20 19 -17 2 2 11 17 21 32 25 40 34 24 11
-19z m88 10 c10 -19 22 -32 27 -29 6 3 10 -1 10 -9 0 -25 -19 -19 -32 9 -18
41 -27 29 -22 -32 6 -76 -11 -40 -19 40 -7 68 10 77 36 21z m1157 32 c0 -2
-11 -6 -25 -8 -14 -3 -25 -1 -25 3 0 5 11 9 25 9 14 0 25 -2 25 -4z m-123 -13
c-3 -3 -23 -7 -44 -9 -29 -2 -32 -1 -13 4 31 10 64 13 57 5z m-167 -18 c0 -7
-30 -13 -34 -7 -3 4 4 9 15 9 10 1 19 0 19 -2z m-1286 -75 l7 -61 37 3 c20 1
37 -2 37 -7 0 -17 -82 -18 -88 -1 -12 31 -20 139 -10 133 6 -4 13 -34 17 -67z
m-76 -18 c19 -35 31 -66 27 -70 -3 -4 -11 1 -16 11 -15 25 -79 24 -86 -3 -5
-19 -23 -29 -23 -12 0 6 11 58 25 120 9 39 38 21 73 -46z m960 44 c2 -9 -2
-23 -8 -31 -14 -17 -40 -20 -40 -5 0 6 7 10 15 10 17 0 20 16 5 25 -13 8 -2
27 13 22 7 -2 13 -11 15 -21z m-1091 -48 c10 -82 10 -81 -3 -85 -7 -2 -28 21
-47 52 -39 63 -49 61 -37 -5 5 -25 5 -49 0 -53 -4 -5 -11 11 -15 35 -3 23 -9
58 -12 76 -8 49 20 41 58 -18 36 -56 51 -57 38 -3 -11 49 -11 63 1 63 5 0 13
-28 17 -62z m-157 21 c9 -15 8 -25 -3 -42 -13 -20 -12 -24 10 -47 13 -14 19
-26 13 -28 -6 -2 -20 8 -31 22 -28 35 -49 34 -49 -4 0 -50 -17 -34 -24 23 -11
96 -11 97 34 97 29 0 42 -5 50 -21z m-140 2 c0 -6 -15 -11 -32 -13 -22 -2 -34
-9 -36 -20 -3 -15 4 -18 32 -18 20 0 36 -4 36 -10 0 -5 -13 -10 -30 -10 -25 0
-30 -4 -30 -25 0 -23 4 -25 42 -25 25 0 38 -4 33 -9 -14 -12 -82 -23 -88 -14
-3 4 -8 38 -12 75 -6 59 -5 67 11 71 34 8 74 7 74 -2z m-135 -22 c-4 -5 -15
-9 -26 -9 -18 0 -19 -5 -13 -67 5 -49 4 -64 -4 -59 -7 4 -12 20 -12 35 0 16
-3 43 -6 60 -6 28 -10 32 -31 26 -18 -4 -24 -2 -21 7 3 7 26 15 54 18 54 6 67
3 59 -11z m-141 -45 c16 -116 -1 -134 -49 -54 -16 27 -33 50 -37 50 -4 0 -4
-25 -1 -55 4 -38 2 -55 -6 -55 -6 0 -11 13 -11 29 0 15 -3 49 -6 75 -5 36 -4
46 7 46 14 0 52 -49 65 -82 3 -10 11 -18 16 -18 7 0 8 20 3 55 -4 32 -3 55 3
55 5 0 12 -21 16 -46z m4561 36 c3 -6 0 -13 -9 -16 -30 -12 5 -154 39 -154 17
0 20 -16 4 -25 -15 -10 -47 23 -54 57 -4 18 -15 32 -26 35 -23 6 -25 19 -4 27
11 4 14 13 9 31 -9 36 24 72 41 45z m-4720 -20 c-3 -5 -13 -10 -22 -10 -12 0
-14 -7 -9 -31 3 -17 6 -42 6 -55 0 -17 6 -24 20 -24 37 0 20 -17 -22 -23 -47
-6 -62 -1 -35 14 11 7 17 22 17 44 0 46 -9 65 -31 65 -21 0 -26 16 -6 23 23
10 88 7 82 -3z m4454 -54 c12 -18 21 -49 21 -69 0 -40 -18 -87 -33 -87 -5 0
-6 8 -1 18 4 9 9 38 12 63 3 41 0 51 -27 81 -17 20 -31 39 -31 42 0 16 40 -17
59 -48z m-4739 25 c0 -5 -10 -11 -21 -14 -18 -5 -21 -11 -15 -38 3 -17 6 -40
6 -50 0 -12 7 -19 20 -19 31 0 23 -17 -11 -24 -44 -9 -59 -8 -59 4 0 6 7 10
15 10 10 0 15 10 15 33 0 51 -11 77 -31 77 -29 0 -22 18 9 23 50 8 72 7 72 -2z
m4587 -13 c49 -54 58 -128 22 -169 l-21 -24 7 25 c18 65 17 99 -5 135 -12 19
-26 35 -31 35 -5 0 -9 5 -9 10 0 17 15 11 37 -12z m-3117 2 c0 -10 -21 -16
-87 -23 -24 -3 -43 -1 -43 4 0 9 26 17 80 22 19 2 38 5 43 5 4 1 7 -2 7 -8z
m-1625 -10 c4 -6 -6 -10 -23 -10 -37 0 -63 -27 -36 -36 68 -24 84 -34 84 -52
0 -25 -16 -38 -57 -45 -20 -4 -35 -1 -42 6 -8 10 -2 13 25 14 68 2 71 35 5 53
-45 12 -58 35 -35 61 18 20 69 26 79 9z m4597 -15 c4 -17 1 -25 -8 -25 -8 0
-14 11 -14 25 0 14 4 25 9 25 5 0 11 -11 13 -25z m48 -2 c-1 -27 -1 -27 -15
-9 -19 25 -19 36 0 36 10 0 15 -10 15 -27z m-5110 -36 c-30 -48 -26 -99 10
-141 17 -19 26 -37 21 -40 -5 -3 -23 10 -40 29 -25 29 -31 45 -31 82 0 47 33
118 50 108 5 -3 0 -20 -10 -38z m140 12 c0 -17 -4 -28 -10 -24 -5 3 -10 17
-10 31 0 13 5 24 10 24 6 0 10 -14 10 -31z m188 19 c27 -27 -2 -78 -45 -78
-19 0 -23 -5 -23 -30 0 -50 -17 -34 -24 23 -11 97 -11 97 37 97 24 0 48 -5 55
-12z m4470 -39 l-5 -24 -10 25 c-12 28 -6 47 9 32 5 -5 8 -20 6 -33z m52 16
c0 -14 -4 -25 -10 -25 -5 0 -10 4 -10 9 0 5 -3 16 -6 25 -4 11 -1 16 10 16 10
0 16 -9 16 -25z m116 -26 c19 -11 34 -24 34 -28 0 -4 -13 -20 -30 -36 -34 -33
-41 -23 -8 12 12 13 20 25 17 27 -2 2 -20 13 -39 25 -19 11 -29 21 -21 21 7 0
29 -9 47 -21z m-5418 -10 c-2 -6 -8 -10 -13 -10 -5 0 -11 4 -13 10 -2 6 4 11
13 11 9 0 15 -5 13 -11z m4925 -44 c4 -25 9 -56 13 -70 10 -40 -12 -30 -53 25
-43 58 -55 63 -42 18 9 -31 12 -94 3 -73 -2 6 -10 38 -18 73 -12 54 -12 62 0
62 8 0 29 -20 46 -45 30 -43 56 -61 45 -31 -13 34 -19 86 -9 86 5 0 12 -20 15
-45z m-5028 26 c-6 -5 -19 -11 -30 -13 -11 -2 -21 -11 -23 -21 -3 -12 3 -17
22 -17 32 0 35 -17 4 -22 -20 -3 -23 -9 -22 -45 0 -24 -3 -43 -8 -43 -4 0 -8
11 -8 24 0 37 -10 56 -31 56 -10 0 -19 5 -19 10 0 6 9 10 20 10 15 0 20 7 20
25 0 13 8 29 18 34 22 13 70 15 57 2z m427 -3 c9 -7 18 -22 20 -33 3 -17 -3
-20 -39 -23 -62 -5 -58 -30 5 -34 44 -3 45 -4 18 -12 -17 -5 -40 -5 -55 0 -37
13 -43 75 -9 98 27 19 39 20 60 4z m4468 -28 c24 -45 3 -110 -36 -110 -48 0
-85 66 -63 113 19 42 76 40 99 -3z m-4612 8 c14 -19 26 -98 14 -98 -5 0 -13
20 -16 45 -5 33 -12 45 -25 45 -27 0 -41 -21 -41 -64 0 -55 -17 -34 -22 26 -3
44 -1 47 22 51 48 8 58 7 68 -5z m4448 -3 c-16 -12 -17 -21 -10 -62 7 -35 14
-48 26 -48 9 0 20 -4 24 -8 4 -4 0 -7 -8 -7 -9 0 -30 -3 -47 -6 -20 -4 -31 -3
-31 5 0 6 7 11 16 11 13 0 14 8 8 48 -8 58 -10 62 -35 62 -11 0 -17 5 -14 10
3 6 25 10 48 10 38 -1 40 -2 23 -15z m-154 -17 c-45 -12 -39 -38 13 -52 63
-18 59 -64 -6 -80 -17 -4 -31 -1 -38 8 -9 11 -6 12 13 9 13 -3 34 1 47 7 l23
13 -23 18 c-13 11 -31 19 -41 19 -23 0 -44 26 -36 45 7 19 46 34 66 27 9 -4 3
-9 -18 -14z m-4888 -34 c9 -67 7 -116 -3 -109 -5 3 -21 0 -35 -6 -22 -10 -29
-9 -46 6 -38 34 -14 101 38 107 21 2 27 8 26 26 -1 41 13 23 20 -24z m420 1
c6 -36 11 -45 27 -45 10 0 19 -4 19 -10 0 -5 -12 -10 -27 -10 -16 0 -38 -3
-50 -6 -13 -4 -23 -2 -23 4 0 5 9 12 20 15 15 4 20 14 20 41 0 32 -3 36 -26
36 -14 0 -23 4 -19 10 3 6 17 10 29 10 20 0 25 -6 30 -45z m1256 36 c0 -9 -71
-21 -123 -21 -44 0 -22 18 28 23 76 7 95 7 95 -2z m3106 -22 c15 -17 16 -23 5
-41 -11 -18 -9 -24 15 -49 15 -16 23 -29 16 -29 -6 0 -22 12 -36 26 -30 34
-55 27 -49 -13 3 -20 2 -24 -5 -13 -5 8 -13 39 -17 69 -5 40 -4 56 6 62 23 14
45 10 65 -12z m-4632 -21 c23 -33 21 -36 -29 -44 -55 -8 -55 -30 -1 -28 43 2
48 -12 7 -21 -47 -10 -71 9 -71 55 0 27 6 42 18 49 28 17 60 12 76 -11z m4496
12 c-8 -5 -25 -10 -38 -10 -17 0 -22 -5 -20 -17 3 -13 13 -18 36 -17 40 2 42
-12 2 -21 -31 -7 -37 -19 -21 -44 6 -9 18 -11 40 -6 18 4 31 3 31 -3 0 -10
-69 -27 -77 -19 -8 8 -31 131 -26 140 2 4 23 7 46 7 31 0 38 -3 27 -10z m-117
-37 c-12 -85 -19 -108 -33 -108 -16 0 -83 110 -77 128 2 6 18 -16 37 -51 18
-34 36 -60 40 -57 4 2 10 32 14 65 4 33 11 60 16 60 5 0 6 -17 3 -37z m930 12
c8 -20 -26 -60 -43 -50 -10 6 -9 10 4 17 11 6 15 16 11 29 -8 23 20 27 28 4z
m-1215 -27 c26 -26 -2 -78 -41 -78 -16 0 -19 -5 -13 -30 3 -16 2 -30 -3 -30
-8 0 -31 97 -31 132 0 14 8 18 38 18 21 0 43 -5 50 -12z m-125 -20 c15 -60 20
-131 8 -124 -6 4 -11 21 -11 37 0 29 -2 30 -37 27 -37 -3 -38 -4 -35 -42 6
-59 -14 -34 -22 28 -3 30 -9 61 -12 70 -3 9 -2 16 3 16 5 0 13 -13 19 -28 10
-25 15 -28 43 -24 29 4 32 7 26 33 -8 34 10 40 18 7z m2014 -10 c31 -34 43
-63 43 -102 0 -39 -18 -86 -33 -86 -5 0 -6 8 -1 18 4 9 9 38 12 63 3 43 0 51
-33 88 -23 25 -32 41 -23 41 8 0 24 -10 35 -22z m-2163 -4 c9 -8 16 -21 16
-28 0 -17 -30 -43 -55 -48 -15 -2 -19 -10 -17 -31 2 -15 0 -27 -5 -27 -14 0
-32 134 -19 142 19 13 64 9 80 -8z m2016 -30 c0 -14 -4 -22 -10 -19 -5 3 -10
17 -10 31 0 14 4 22 10 19 6 -3 10 -17 10 -31z m50 11 c0 -14 -4 -25 -10 -25
-5 0 -10 4 -10 9 0 5 -3 16 -6 25 -4 11 -1 16 10 16 10 0 16 -9 16 -25z
m-2490 -31 c0 -13 -4 -24 -9 -24 -10 0 -21 47 -13 54 10 11 22 -6 22 -30z
m2337 -14 c12 -59 1 -67 -15 -11 -14 46 -15 61 -3 61 4 0 13 -22 18 -50z m401
39 c-2 -6 -8 -10 -13 -10 -5 0 -11 4 -13 10 -2 6 4 11 13 11 9 0 15 -5 13 -11z
m-2788 -31 c0 -34 -13 -29 -25 10 -5 16 -2 22 9 22 11 0 16 -10 16 -32z m2255
-33 c4 -36 3 -45 -4 -34 -15 23 -26 107 -13 94 6 -5 13 -32 17 -60z m-2332 6
c3 -11 -5 -34 -19 -55 -13 -19 -24 -37 -24 -40 0 -3 16 -2 35 1 44 7 47 -12 4
-21 -77 -15 -84 -6 -40 55 37 51 32 73 -16 66 -40 -7 -42 14 -2 24 30 7 55 -4
62 -30z m2190 22 c3 -10 8 -35 12 -56 8 -50 -10 -41 -19 9 -4 19 -10 42 -13
50 -3 8 0 14 5 14 6 0 13 -8 15 -17z m-83 -68 c7 -33 15 -66 18 -74 4 -10 1
-13 -12 -8 -9 4 -25 1 -36 -5 -27 -17 -60 14 -60 57 0 35 13 50 45 57 15 2 19
10 17 28 -7 48 15 6 28 -55z m-2540 20 c0 -14 -4 -25 -10 -25 -5 0 -10 4 -10
9 0 5 -3 16 -6 25 -4 11 -1 16 10 16 10 0 16 -9 16 -25z m140 15 c0 -5 -13
-10 -30 -10 -23 0 -30 -4 -30 -20 0 -15 7 -20 29 -20 31 0 61 -22 61 -44 0
-30 -80 -67 -88 -41 -1 6 8 11 22 13 28 4 51 26 41 42 -3 5 -21 10 -39 10 -26
0 -35 5 -40 23 -13 49 -8 57 34 57 22 0 40 -4 40 -10z m3179 -4 c15 -18 -2
-56 -24 -56 -18 0 -20 17 -2 23 9 3 9 7 0 19 -12 14 -8 28 7 28 4 0 13 -6 19
-14z m-3469 -3 c0 -5 -7 -17 -15 -27 -26 -35 -19 -97 16 -139 42 -51 26 -63
-17 -13 -28 32 -34 48 -34 83 0 45 23 103 40 103 6 0 10 -3 10 -7z m100 -18
c0 -14 -4 -25 -10 -25 -5 0 -10 4 -10 9 0 5 -3 16 -6 25 -4 11 -1 16 10 16 10
0 16 -9 16 -25z m2140 10 c0 -8 -4 -15 -9 -15 -13 0 -22 16 -14 24 11 11 23 6
23 -9z m-640 -5 c0 -5 -8 -10 -19 -10 -10 0 -39 -3 -65 -6 -30 -5 -46 -3 -46
4 0 10 21 14 108 20 12 1 22 -2 22 -8z m954 -32 c22 -31 20 -38 -8 -38 -13 0
-31 -3 -40 -6 -29 -11 -16 -24 24 -24 22 0 40 -5 40 -11 0 -6 -17 -9 -42 -7
-35 2 -45 8 -56 30 -29 61 44 111 82 56z m-1700 -4 c4 -10 -1 -25 -10 -35 -18
-20 -44 -25 -44 -9 0 6 7 10 15 10 17 0 20 16 5 25 -6 4 -8 11 -5 16 10 15 32
10 39 -7z m1566 1 c7 -9 10 -19 6 -22 -4 -4 -11 -1 -16 7 -7 12 -13 13 -27 4
-13 -8 -18 -24 -17 -53 1 -51 -12 -54 -20 -3 -4 20 -10 45 -13 55 -4 15 -1 18
15 13 11 -4 23 -2 27 4 9 15 31 12 45 -5z m650 -5 c0 -5 -7 -10 -15 -10 -8 0
-15 5 -15 10 0 6 7 10 15 10 8 0 15 -4 15 -10z m-811 -44 c8 -31 17 -46 33
-51 22 -7 22 -8 -7 -15 -43 -11 -75 -11 -75 -1 0 5 9 11 20 14 17 4 20 10 14
34 -9 39 -14 45 -30 39 -14 -6 -19 6 -7 17 20 20 41 5 52 -37z m681 29 c0 -8
-7 -15 -15 -15 -8 0 -15 7 -15 15 0 8 7 15 15 15 8 0 15 -7 15 -15z m-776 -70
l7 -40 -43 0 c-35 0 -44 4 -55 25 -14 28 -18 84 -4 76 4 -3 11 -24 15 -46 6
-35 10 -41 29 -38 18 2 22 10 23 43 1 22 2 45 3 50 3 15 18 -25 25 -70z
m-2292 48 c27 -24 22 -43 -11 -43 -16 0 -36 -3 -45 -6 -27 -10 -7 -24 35 -24
21 0 39 -4 39 -10 0 -5 -18 -10 -39 -10 -60 0 -91 52 -54 92 20 22 51 23 75 1z
m2929 4 c-1 -12 -15 -9 -19 4 -3 6 1 10 8 8 6 -3 11 -8 11 -12z m-3061 -12
c17 -21 6 -29 -18 -14 -30 19 -52 -4 -53 -55 0 -47 -12 -28 -22 37 -5 34 -4
37 13 32 10 -3 21 -1 25 5 9 15 41 12 55 -5z m685 4 c10 -15 -1 -23 -20 -15
-9 3 -13 10 -10 16 8 13 22 13 30 -1z m1591 -16 c3 -16 10 -44 15 -63 12 -46
11 -73 -1 -65 -5 3 -10 17 -10 31 0 24 -14 32 -25 14 -18 -30 -75 10 -75 52 0
26 36 58 65 58 19 0 26 -7 31 -27z m-2433 0 c10 -16 19 -104 11 -102 -5 1 -22
-1 -37 -6 -21 -6 -33 -3 -45 9 -22 22 -5 49 34 56 39 7 31 25 -11 24 -29 -1
-33 1 -24 12 12 15 65 19 72 7z m2289 -10 c33 -30 17 -53 -38 -53 -26 0 -33
-15 -11 -23 7 -3 25 -3 39 0 14 3 29 0 32 -6 4 -6 1 -11 -6 -11 -7 0 -23 -3
-35 -6 -44 -12 -85 70 -51 104 17 17 48 15 70 -5z m-582 -8 c0 -8 -7 -15 -15
-15 -8 0 -15 7 -15 15 0 8 7 15 15 15 8 0 15 -7 15 -15z m-1836 -27 c14 -39
-5 -74 -44 -82 -26 -5 -31 -10 -27 -26 3 -11 1 -20 -3 -20 -9 0 -16 27 -25
105 l-6 50 48 0 c43 0 48 -3 57 -27z m2231 22 c20 17 59 8 63 -13 3 -16 1 -17
-16 -6 -11 7 -27 9 -37 5 -15 -5 -17 -14 -12 -51 4 -25 3 -45 -2 -45 -9 0 -30
108 -22 116 3 3 7 0 9 -6 3 -8 8 -8 17 0z m-2377 -17 c13 -26 22 -93 13 -93
-5 0 -12 21 -16 46 -9 60 -30 53 -29 -9 0 -60 -13 -61 -22 -2 -8 56 -28 55
-31 -1 -1 -21 -2 -43 -3 -49 -3 -17 -18 38 -19 71 -1 26 4 33 23 38 14 3 32 3
40 0 9 -3 16 -1 16 5 0 17 18 13 28 -6z m-156 -20 c35 -32 12 -103 -34 -103
-37 0 -58 19 -58 52 0 58 52 87 92 51z m2305 2 c2 -6 -7 -11 -19 -10 -36 0
-36 -18 0 -27 18 -5 35 -15 39 -24 9 -23 -17 -45 -50 -42 -39 4 -46 23 -10 23
41 0 43 17 4 30 -39 13 -49 29 -30 51 13 16 60 15 66 -1z m-2452 -15 c4 -6 -6
-10 -24 -10 -42 0 -60 -33 -35 -62 14 -14 26 -18 49 -14 28 5 29 5 11 -9 -25
-19 -36 -19 -64 1 -26 18 -29 60 -5 86 17 19 58 24 68 8z m2298 -37 c6 -33 13
-43 28 -43 10 0 19 -4 19 -10 0 -5 -8 -10 -19 -10 -10 0 -33 -3 -50 -6 -20 -4
-31 -3 -31 5 0 6 9 11 20 11 21 0 25 16 14 58 -4 13 -14 22 -25 22 -11 0 -19
5 -19 11 0 6 12 9 27 7 24 -3 29 -9 36 -45z m-2923 22 c0 -8 -7 -15 -15 -15
-16 0 -20 12 -8 23 11 12 23 8 23 -8z m328 -17 c15 -19 28 -113 13 -104 -6 4
-11 20 -11 35 0 15 -6 36 -14 46 -14 19 -14 19 -36 0 -17 -15 -21 -27 -17 -52
3 -18 2 -35 -2 -38 -5 -2 -11 12 -15 33 -9 55 -7 84 4 77 5 -3 18 -1 27 4 24
14 39 13 51 -1z m2352 -8 c12 -23 8 -25 -19 -8 -31 19 -54 -7 -48 -54 5 -40
-9 -54 -17 -15 -17 82 -16 89 3 82 11 -3 22 -1 26 5 11 17 44 11 55 -10z
m-346 -6 c4 -11 13 -14 30 -10 14 3 28 2 31 -4 4 -6 -7 -13 -24 -16 -18 -4
-31 -13 -31 -21 0 -29 21 -53 45 -53 14 0 25 -4 25 -10 0 -14 -56 -12 -68 3
-5 6 -13 27 -17 45 -5 24 -12 32 -28 32 -20 1 -21 2 -4 14 9 7 17 18 17 25 0
17 17 13 24 -5z m-2153 -7 c27 -21 32 -64 9 -87 -39 -39 -100 -19 -100 32 0
56 50 86 91 55z m2349 -7 c11 -11 20 -24 20 -29 0 -10 -34 -21 -67 -21 -13 0
-23 -4 -23 -9 0 -14 28 -21 60 -14 40 8 40 -13 0 -22 -61 -13 -99 40 -70 96
14 25 54 25 80 -1z m5964 -25 c9 -45 23 -53 38 -21 6 14 15 26 20 26 12 0 10
-8 -8 -34 -14 -23 -14 -25 15 -42 30 -18 40 -34 22 -34 -6 0 -13 4 -16 10 -3
5 -15 15 -27 21 -19 10 -20 9 -14 -15 3 -14 3 -26 -2 -26 -4 0 -18 31 -30 68
-25 77 -26 82 -13 82 5 0 12 -16 15 -35z m-8484 -25 c3 -30 10 -45 20 -46 32
-3 34 -5 20 -14 -20 -13 -103 -13 -95 0 3 6 15 10 27 10 16 0 19 5 14 23 -3
12 -6 30 -6 40 0 10 -8 17 -20 17 -11 0 -20 5 -20 11 0 6 12 9 28 7 24 -3 28
-8 32 -48z m2232 23 c9 -10 17 -34 20 -54 3 -34 2 -36 -35 -46 -30 -8 -41 -8
-53 4 -7 8 -14 18 -14 23 0 13 42 40 62 40 20 0 25 19 6 21 -20 2 -21 2 -47
-6 -17 -5 -22 -4 -19 6 4 11 29 23 59 28 3 1 13 -7 21 -16z m-2362 -3 c0 -5
-14 -10 -31 -10 -39 0 -34 -21 9 -32 17 -5 34 -13 37 -19 10 -15 -25 -49 -51
-49 -36 0 -38 18 -2 22 44 4 46 24 3 32 -40 8 -54 28 -35 51 14 17 70 21 70 5z
m-610 -9 c0 -6 -4 -12 -10 -16 -5 -3 -14 -21 -19 -40 -11 -43 1 -95 29 -120
11 -10 20 -25 20 -33 0 -12 -7 -9 -26 9 -57 53 -67 104 -34 169 19 37 40 53
40 31z m475 -11 c16 -18 16 -20 2 -20 -10 0 -17 5 -17 10 0 17 -26 11 -44 -9
-10 -11 -17 -32 -16 -48 3 -43 -2 -51 -10 -18 -14 54 -12 95 4 89 8 -3 23 -1
33 5 25 14 27 14 48 -9z m2351 12 c16 -10 34 -48 27 -56 -3 -3 -24 -6 -45 -6
-50 0 -47 -25 3 -26 44 -1 49 -18 7 -22 -45 -4 -69 16 -70 57 -1 47 43 77 78
53z m6353 -15 c15 -19 3 -28 -20 -14 -30 19 -45 -4 -32 -48 6 -20 7 -35 2 -35
-5 0 -9 1 -9 3 0 1 -7 24 -15 51 -13 42 -13 47 0 42 8 -3 17 -1 20 4 9 14 41
12 54 -3z m-8867 -14 c10 -9 18 -24 18 -35 0 -14 -8 -18 -38 -18 -44 0 -56 -8
-41 -26 6 -8 23 -10 45 -7 22 4 34 2 34 -6 0 -13 -68 -15 -87 -3 -7 4 -15 22
-19 39 -5 25 -1 34 21 52 33 25 43 26 67 4z m2395 2 c3 -9 2 -19 -2 -23 -4 -4
-10 -1 -12 6 -3 6 -13 12 -23 12 -29 0 -42 -25 -34 -64 4 -21 2 -36 -4 -36 -5
0 -12 17 -16 38 -9 58 -8 72 8 66 8 -3 17 -1 21 5 10 17 55 13 62 -4z m-143
-27 c-7 -36 -28 -58 -56 -58 -10 0 -18 -5 -18 -11 0 -7 13 -8 38 -4 29 5 42 2
52 -10 11 -13 10 -18 -4 -34 -33 -36 -117 -33 -102 4 2 6 0 33 -5 60 -10 55
-2 72 39 78 62 9 62 9 56 -25z m6483 24 c6 -4 16 -19 22 -33 12 -32 -9 -69
-39 -69 -21 0 -60 45 -60 69 0 34 45 53 77 33z m-8873 -29 c-12 -51 -34 -95
-44 -91 -16 5 -74 108 -61 108 6 0 21 -20 33 -45 31 -63 36 -60 53 23 4 17 11
32 16 32 5 0 6 -12 3 -27z m8779 -45 c7 -45 -13 -53 -31 -12 -7 14 -17 22 -22
19 -6 -3 -10 4 -9 17 l0 23 16 -22 c23 -33 32 -28 27 15 -6 48 10 13 19 -40z
m-93 27 c0 -7 9 -24 20 -38 12 -15 16 -28 11 -32 -6 -3 -22 17 -36 44 -29 58
-31 68 -10 51 8 -7 15 -18 15 -25z m-7610 15 c0 -5 -11 -10 -24 -10 -13 0 -44
-3 -70 -6 -30 -5 -46 -3 -46 4 0 10 33 16 108 20 17 1 32 -2 32 -8z m7289 -20
c11 0 21 -4 21 -10 0 -5 -9 -10 -20 -10 -11 0 -20 -7 -20 -16 0 -29 21 -54 45
-54 14 0 25 -5 25 -11 0 -6 -14 -9 -32 -7 -28 2 -35 9 -44 38 -6 19 -19 36
-28 38 -17 4 -22 22 -6 22 6 0 10 10 10 23 1 20 2 21 14 5 7 -10 23 -18 35
-18z m-6262 5 c3 -9 2 -19 -2 -23 -4 -4 -10 -1 -12 6 -6 17 -28 15 -48 -4 -11
-11 -14 -26 -9 -50 4 -20 2 -34 -4 -34 -5 0 -12 17 -16 38 -9 58 -8 72 8 66 8
-3 17 -1 21 5 10 17 55 13 62 -4z m6423 -25 c17 -33 12 -60 -16 -72 -31 -14
-53 -3 -72 34 -31 65 54 102 88 38z m-6883 12 c11 -7 16 -26 14 -49 0 -6 -13
-25 -27 -42 -27 -33 -27 -34 24 -31 17 1 32 -3 32 -9 0 -6 -8 -11 -17 -11 -10
0 -35 -3 -55 -6 -47 -8 -49 6 -8 53 17 18 30 43 30 54 0 25 -27 36 -51 20 -15
-9 -19 -8 -19 3 0 23 51 35 77 18z m307 -8 c36 -35 10 -104 -39 -104 -32 0
-55 25 -55 60 0 35 23 60 55 60 13 0 31 -7 39 -16z m5950 -85 c9 -36 16 -67
16 -70 0 -2 -18 -5 -40 -7 -38 -2 -42 0 -54 30 -16 37 -6 67 25 75 12 4 19 14
19 31 0 41 16 13 34 -59z m-6544 61 c0 -5 -4 -10 -9 -10 -5 0 -21 -4 -35 -10
-34 -12 -24 -40 14 -40 25 0 60 -21 60 -36 0 -27 -54 -64 -92 -64 -23 0 1 25
28 30 20 4 30 12 32 28 3 20 -1 22 -37 22 l-41 0 0 39 c0 36 3 40 28 44 49 7
52 7 52 -3z m6800 -20 c0 -13 -17 -13 -25 0 -4 7 -13 6 -26 -1 -20 -10 -21
-26 -3 -73 3 -9 2 -16 -4 -16 -10 0 -35 78 -30 95 2 5 11 10 20 10 10 1 21 5
24 8 9 8 44 -11 44 -23z m-140 -10 c11 -11 20 -24 20 -29 0 -11 -25 -21 -52
-21 -11 0 -18 -5 -15 -12 2 -8 17 -12 35 -11 17 2 34 -2 37 -7 3 -6 0 -10 -9
-10 -8 0 -21 -3 -30 -6 -19 -7 -66 38 -66 65 0 23 25 51 46 51 8 0 23 -9 34
-20z m-6945 -14 c29 -21 10 -68 -33 -81 -26 -7 -32 -14 -32 -37 0 -15 -4 -28
-9 -28 -11 0 -26 134 -16 149 9 16 68 13 90 -3z m-129 -83 c4 -50 3 -73 -4
-73 -6 0 -12 15 -14 33 -3 29 -6 32 -38 32 -34 0 -35 -1 -34 -37 1 -36 -12
-52 -21 -25 -10 33 -15 137 -6 137 5 0 11 -10 13 -22 2 -19 10 -24 41 -26 37
-3 39 -2 37 25 -3 42 -1 48 9 38 5 -6 13 -43 17 -82z m6829 67 c19 -21 8 -29
-13 -8 -8 8 -15 8 -27 -2 -12 -10 -15 -23 -10 -54 9 -51 -7 -38 -23 20 -15 50
-15 57 -2 49 5 -3 18 -1 27 4 25 14 27 14 48 -9z m-553 -15 c0 -5 -5 -11 -11
-13 -6 -2 -11 4 -11 13 0 9 5 15 11 13 6 -2 11 -8 11 -13z m422 0 c12 -9 19
-28 20 -52 1 -32 -3 -38 -26 -47 -33 -12 -62 10 -73 52 -5 20 -1 31 15 44 27
21 39 22 64 3z m-7024 -25 c0 -16 -4 -30 -9 -30 -10 0 -21 47 -13 55 13 13 22
3 22 -25z m158 18 c7 -7 12 -23 12 -36 0 -18 -9 -27 -40 -39 -34 -14 -40 -21
-40 -45 0 -15 -4 -28 -9 -28 -10 0 -24 137 -16 151 9 13 79 11 93 -3z m-328
-30 c-31 -51 -27 -110 10 -152 17 -19 26 -37 21 -40 -15 -10 -68 59 -75 98 -8
42 25 126 50 126 10 0 9 -7 -6 -32z m120 6 c0 -31 -23 -28 -28 4 -2 15 2 22
12 22 11 0 16 -9 16 -26z m930 -9 c0 -8 -6 -15 -14 -15 -17 0 -28 14 -19 24
12 12 33 6 33 -9z m5899 -2 c5 -10 12 -36 16 -58 9 -49 -9 -37 -22 15 -7 25
-15 35 -29 35 -16 0 -19 -7 -18 -42 1 -53 -9 -55 -24 -4 -19 60 -16 66 28 69
29 2 41 -2 49 -15z m-154 -39 c4 -24 13 -38 26 -41 11 -3 18 -11 16 -17 -5
-14 -77 -21 -77 -7 0 6 7 11 15 11 18 0 19 9 5 44 -5 14 -16 26 -25 26 -8 0
-15 5 -15 10 0 6 11 10 24 10 19 0 25 -7 31 -36z m-439 1 c7 -28 8 -29 34 -15
15 8 24 6 40 -10 11 -11 20 -29 20 -39 0 -11 3 -26 6 -35 3 -9 2 -16 -4 -16
-5 0 -14 17 -19 38 -6 26 -15 38 -30 40 -26 4 -35 -18 -23 -57 5 -18 5 -31 0
-31 -5 0 -14 19 -20 43 -6 23 -15 55 -20 71 -12 36 -12 36 0 36 5 0 12 -11 16
-25z m206 -12 c18 -16 24 -59 10 -79 -4 -7 -16 -14 -27 -16 -14 -3 -19 -11
-18 -26 5 -39 -16 -24 -27 21 -6 23 -15 56 -20 74 -7 28 -5 32 13 36 42 8 51
7 69 -10z m-260 -30 c36 -42 28 -86 -17 -103 -17 -7 -22 -14 -18 -29 3 -12 1
-21 -5 -21 -6 0 -18 31 -26 69 -20 85 -20 92 -2 85 8 -3 17 -1 21 5 9 16 30
13 47 -6z m-2742 -23 c0 -6 -7 -13 -15 -16 -29 -12 -1 -154 33 -169 27 -12 29
-25 3 -25 -24 0 -51 36 -51 67 0 16 -9 27 -27 35 -22 9 -24 12 -10 15 18 5 20
12 17 55 -1 16 6 30 17 37 23 13 33 14 33 1z m2304 -5 c4 -11 13 -14 31 -9 14
3 25 2 25 -4 0 -5 -11 -13 -25 -16 -28 -7 -29 -13 -15 -50 7 -19 17 -26 35
-26 14 0 25 -5 25 -11 0 -6 -14 -9 -32 -7 -29 3 -35 8 -46 46 -8 23 -20 42
-28 42 -8 0 -14 5 -14 10 0 6 5 10 10 10 6 0 10 7 10 15 0 20 16 19 24 0z
m192 -19 c21 -33 15 -68 -15 -83 -30 -14 -57 -2 -73 33 -28 61 51 106 88 50z
m-2809 -28 c31 -35 43 -63 43 -103 0 -38 -24 -95 -40 -95 -14 0 -12 12 5 34
18 23 20 79 4 109 -6 12 -23 34 -37 50 -19 19 -22 27 -11 27 9 0 25 -10 36
-22z m2103 7 c0 -8 -7 -15 -15 -15 -8 0 -15 7 -15 15 0 8 7 15 15 15 8 0 15
-7 15 -15z m-2235 -35 c36 -37 45 -111 21 -158 -9 -18 -21 -32 -26 -32 -13 0
-13 3 5 36 26 50 17 108 -24 151 -12 12 -21 25 -21 28 0 13 18 3 45 -25z
m2539 8 c18 -29 31 -88 19 -88 -5 0 -14 20 -21 45 -12 46 -30 57 -51 31 -9
-11 -10 -25 -2 -51 7 -26 7 -35 -2 -32 -6 2 -16 26 -22 55 -11 48 -11 51 9 55
44 9 56 6 70 -15z m-2702 -33 c3 -16 1 -25 -7 -25 -13 0 -27 45 -17 54 9 9 20
-3 24 -29z m50 10 c4 -17 1 -25 -8 -25 -8 0 -14 11 -14 25 0 14 4 25 9 25 5 0
11 -11 13 -25z m2515 17 c20 -13 34 -61 23 -82 -24 -44 -92 -28 -102 24 -9 48
39 83 79 58z m-150 -54 c7 -33 14 -43 33 -48 29 -7 19 -15 -32 -24 -21 -4 -39
-2 -43 4 -3 5 1 10 10 10 8 0 18 6 21 13 8 21 -14 67 -31 67 -8 0 -15 5 -15
10 0 6 11 10 24 10 21 0 26 -6 33 -42z m-119 12 c3 -7 0 -10 -6 -6 -12 7 -42
-3 -42 -14 0 -5 13 -11 29 -15 39 -8 57 -30 42 -49 -17 -20 -59 -26 -72 -10
-9 11 -6 14 19 14 47 0 48 18 2 30 -46 12 -56 44 -17 60 27 11 39 8 45 -10z
m-124 -22 c17 -29 29 -88 16 -88 -5 0 -12 16 -16 35 -8 44 -28 62 -50 45 -11
-10 -14 -23 -9 -52 4 -22 3 -38 -3 -38 -5 0 -12 18 -16 39 -3 22 -9 47 -12 56
-6 14 -3 16 14 11 11 -4 23 -2 27 4 11 17 34 11 49 -12z m-324 -3 c0 -10 10
-15 31 -15 17 0 28 -4 24 -10 -3 -5 -15 -10 -26 -10 -23 0 -25 -27 -4 -57 10
-14 22 -19 35 -16 11 3 20 1 20 -5 0 -5 -10 -12 -22 -15 -28 -8 -54 15 -62 54
-3 17 -12 29 -22 29 -9 0 -13 5 -10 13 3 6 9 20 12 30 8 21 24 23 24 2z
m-1920 -14 c17 -33 12 -40 -30 -47 -50 -8 -47 -30 3 -26 46 4 57 -14 13 -22
-44 -8 -62 -1 -76 35 -10 24 -10 33 4 54 21 31 70 35 86 6z m2111 -2 c28 -28
20 -43 -25 -47 -49 -4 -42 -27 8 -26 42 1 48 -13 9 -22 -32 -8 -54 4 -71 40
-12 23 -11 31 2 52 20 29 49 31 77 3z m-2251 -4 c17 -20 5 -32 -15 -15 -13 11
-19 10 -36 -6 -16 -15 -19 -25 -14 -56 4 -23 3 -38 -3 -38 -10 0 -29 100 -21
110 2 2 12 5 21 5 10 1 21 5 25 8 11 12 30 8 43 -8z m-447 -17 c7 -25 0 -41
-14 -33 -12 8 -12 55 0 55 5 0 11 -10 14 -22z m-153 8 c0 -2 -7 -21 -16 -41
-20 -50 -12 -96 27 -139 35 -41 23 -57 -13 -18 -35 37 -48 65 -48 101 0 32 28
101 42 101 4 0 8 -2 8 -4z m102 -21 c3 -16 1 -25 -7 -25 -7 0 -15 11 -17 25
-3 16 -1 25 7 25 7 0 15 -11 17 -25z m343 15 c3 -5 -1 -10 -9 -10 -9 0 -25 -9
-36 -20 -29 -29 -12 -58 38 -62 l37 -4 -29 -12 c-40 -18 -76 6 -76 50 0 49 54
91 75 58z m2145 5 c0 -3 -8 -17 -17 -32 -17 -25 -16 -26 11 -50 16 -13 26 -27
22 -30 -3 -4 -17 4 -31 17 l-24 23 -12 -27 c-7 -14 -16 -26 -21 -26 -11 0 -10
4 4 35 10 22 8 29 -12 50 -30 32 -21 42 13 14 l27 -20 10 25 c8 22 30 37 30
21z m-2271 -47 c22 -39 6 -79 -37 -90 -28 -8 -31 -12 -26 -33 4 -15 2 -25 -4
-25 -10 0 -16 18 -28 95 -3 22 -8 48 -11 58 -4 15 -1 18 15 13 11 -4 23 -2 27
4 12 19 49 6 64 -22z m2141 -8 c12 -22 8 -25 -43 -34 -48 -9 -39 -26 14 -26
46 0 52 -16 8 -22 -44 -7 -81 25 -77 65 5 57 71 68 98 17z m-2576 -54 c11 -66
11 -76 -1 -72 -7 3 -23 0 -33 -7 -26 -15 -51 0 -61 35 -10 37 11 72 44 76 22
3 27 8 27 29 0 45 10 19 24 -61z m2288 37 c31 -28 23 -51 -19 -55 -52 -4 -48
-22 5 -26 48 -4 48 -22 0 -22 -40 0 -68 25 -68 61 0 51 46 75 82 42z m-2577
-78 c10 -64 9 -75 -2 -71 -8 3 -23 0 -33 -7 -26 -15 -50 -1 -63 37 -12 36 14
76 48 76 20 0 25 5 25 27 0 47 13 16 25 -62z m2453 52 c3 -16 1 -17 -16 -6
-33 21 -56 -5 -48 -53 4 -21 2 -38 -3 -38 -5 0 -12 17 -15 38 -4 20 -10 46
-13 56 -4 14 -1 18 11 13 8 -3 18 -2 22 4 10 17 58 6 62 -14z m-2312 -22 c20
-31 17 -35 -36 -42 -52 -7 -47 -27 9 -31 49 -4 46 -22 -4 -22 -56 0 -85 62
-48 102 23 26 59 23 79 -7z m2164 16 c0 -5 -12 -11 -27 -13 -20 -2 -29 -9 -31
-26 -5 -34 16 -54 50 -47 35 8 38 -12 3 -21 -39 -10 -75 19 -75 59 0 18 5 38
12 45 14 14 68 16 68 3z m-126 -42 c14 -41 0 -75 -35 -88 -24 -8 -29 -15 -24
-31 3 -11 2 -20 -4 -20 -5 0 -15 26 -21 58 -6 31 -13 67 -15 79 -4 16 0 23 17
26 48 10 72 3 82 -24z m-4967 13 c6 -4 13 -21 15 -37 2 -22 9 -31 26 -33 27
-4 29 -18 2 -25 -16 -4 -20 -14 -20 -47 0 -23 -5 -50 -10 -61 -13 -22 -50 -26
-50 -4 0 8 7 15 15 15 17 0 17 -1 20 60 4 67 -12 120 -35 120 -11 0 -20 5 -20
10 0 12 40 13 57 2z m2308 -39 c10 -81 14 -90 37 -98 l23 -7 -25 -8 c-36 -12
-80 -12 -80 0 0 6 10 10 21 10 20 0 21 4 15 46 -3 26 -6 55 -6 65 0 14 -7 19
-25 19 -14 0 -25 5 -25 10 0 6 13 10 29 10 28 0 30 -3 36 -47z m2155 11 c0
-28 3 -29 30 -12 17 11 23 10 39 -7 21 -22 39 -105 23 -105 -6 0 -13 18 -17
39 -8 51 -27 68 -50 45 -12 -13 -15 -26 -10 -55 4 -24 3 -39 -4 -39 -5 0 -13
21 -16 48 -4 26 -10 61 -15 79 -4 17 -6 34 -3 37 11 11 23 -5 23 -30z m-1827
9 c3 -10 8 -35 12 -57 5 -32 4 -38 -9 -33 -8 3 -18 2 -21 -3 -11 -17 -54 -11
-64 9 -12 21 9 46 43 52 11 2 21 10 24 18 3 10 -4 12 -32 9 -20 -2 -36 -1 -36
2 0 14 15 20 46 20 23 0 34 -5 37 -17z m2055 -41 c3 -16 -4 -21 -37 -27 -23
-4 -41 -11 -41 -16 0 -10 10 -12 58 -9 41 2 42 -16 0 -24 -49 -10 -80 16 -76
62 2 27 9 40 28 49 30 15 63 -2 68 -35z m-2194 16 c21 -30 20 -54 -4 -78 -54
-54 -126 12 -90 81 15 28 74 26 94 -3z m1846 7 c0 -10 10 -15 30 -15 17 0 30
-4 30 -10 0 -5 -9 -10 -20 -10 -26 0 -36 -25 -22 -56 8 -16 20 -24 37 -24 14
0 25 -4 25 -10 0 -15 -56 -12 -69 3 -6 8 -14 28 -17 45 -5 22 -12 32 -25 32
-11 0 -19 5 -19 10 0 6 7 10 15 10 8 0 15 9 15 20 0 11 5 20 10 20 6 0 10 -7
10 -15z m-2630 -36 c0 -5 -7 -9 -15 -9 -15 0 -20 12 -9 23 8 8 24 -1 24 -14z
m329 -13 c16 -19 27 -106 12 -106 -6 0 -11 16 -11 39 0 51 -22 71 -51 45 -17
-15 -20 -26 -15 -56 4 -23 2 -38 -4 -38 -5 0 -10 6 -10 14 0 7 -3 35 -7 61 -4
35 -3 46 5 41 7 -4 20 -2 29 3 24 14 39 13 52 -3z m-135 -39 c19 -26 19 -30 5
-55 -36 -65 -113 -45 -107 27 2 26 10 39 28 48 34 17 49 13 74 -20z m1746 17
c0 -17 -22 -14 -28 4 -2 7 3 12 12 12 9 0 16 -7 16 -16z m455 7 c3 -5 -7 -11
-22 -13 -38 -4 -35 -19 6 -33 19 -6 37 -17 39 -24 10 -30 -58 -61 -79 -35 -9
11 -5 14 26 14 45 0 43 19 -5 35 -38 13 -48 29 -30 50 14 17 56 20 65 6z
m-2391 -33 c3 -13 6 -35 6 -50 0 -21 5 -28 20 -28 38 0 20 -18 -26 -25 -53 -8
-69 0 -29 15 19 7 25 15 21 26 -3 9 -6 24 -6 35 0 12 -7 19 -20 19 -37 0 -22
21 21 29 4 0 9 -9 13 -21z m2261 2 c26 -28 13 -50 -31 -50 -51 0 -39 -24 15
-28 51 -4 44 -22 -9 -22 -40 0 -70 26 -70 60 0 27 30 60 54 60 13 0 31 -9 41
-20z m-2390 -9 c3 -5 -7 -11 -22 -13 -37 -4 -40 -25 -4 -33 16 -3 35 -13 42
-22 11 -13 10 -18 -10 -34 -25 -21 -56 -25 -66 -9 -3 6 3 10 14 10 26 0 51 10
51 21 0 4 -18 13 -40 19 -29 8 -40 16 -40 30 0 30 60 55 75 31z m2255 -6 c17
-21 6 -29 -18 -14 -33 21 -56 -5 -48 -53 4 -22 2 -38 -3 -38 -6 0 -13 17 -16
38 -4 20 -9 46 -12 56 -4 14 -1 17 9 13 8 -3 21 -1 29 4 21 13 45 11 59 -6z
m-2401 -14 c8 -5 16 -32 19 -61 3 -38 2 -51 -7 -46 -6 4 -11 25 -11 47 0 47
-21 60 -51 33 -17 -15 -20 -26 -15 -56 4 -21 2 -38 -3 -38 -4 0 -11 17 -15 38
-9 55 -7 84 4 77 5 -3 18 -1 27 4 22 13 34 13 52 2z m2227 -38 c7 -39 13 -47
28 -45 11 2 17 -1 14 -10 -5 -15 -86 -29 -95 -16 -3 5 4 12 16 15 35 9 26 83
-10 83 -10 0 -19 5 -19 10 0 6 13 10 28 10 26 0 29 -4 38 -47z m-2586 22 c0
-10 11 -15 35 -15 19 0 35 -4 35 -10 0 -5 -13 -10 -30 -10 -25 0 -30 -4 -30
-24 0 -42 11 -56 41 -56 36 0 38 -16 4 -22 -34 -7 -51 10 -59 55 -6 29 -11 37
-29 37 -22 1 -22 1 -2 16 11 8 19 22 17 30 -2 8 2 14 8 14 5 0 10 -7 10 -15z
m2483 -63 c4 -34 2 -42 -9 -38 -7 3 -16 1 -19 -4 -10 -17 -54 -11 -63 8 -16
29 -24 92 -13 92 6 0 14 -18 17 -41 7 -45 26 -58 50 -38 11 9 15 24 11 50 -5
41 3 61 14 32 3 -10 9 -37 12 -61z m-2269 46 c25 -35 19 -45 -25 -51 -22 -3
-44 -8 -47 -12 -12 -12 22 -23 55 -18 19 3 33 1 33 -5 0 -17 -63 -21 -87 -6
-32 20 -32 77 -1 98 31 22 54 20 72 -6z m2123 -64 c15 -87 15 -94 3 -94 -5 0
-10 11 -10 24 0 27 -15 42 -25 26 -11 -17 -54 -11 -65 9 -14 27 -13 76 3 89
12 10 54 21 72 17 5 -1 15 -33 22 -71z m-1177 47 c0 -11 -140 -30 -146 -19 -3
4 5 10 18 12 71 16 128 19 128 7z m-1739 -35 c-35 -56 -27 -120 22 -173 17
-20 18 -23 4 -23 -22 0 -63 57 -72 99 -8 39 29 131 53 131 10 0 9 -8 -7 -34z
m485 12 c-21 -30 -20 -47 6 -69 11 -11 18 -22 15 -26 -4 -3 -18 4 -31 16 l-24
23 -17 -26 c-25 -38 -38 -32 -15 6 l19 32 -26 28 c-31 32 -20 38 13 7 l22 -21
17 26 c10 14 22 26 27 26 5 0 2 -10 -6 -22z m2280 -3 c20 -31 17 -35 -36 -42
-50 -7 -48 -28 3 -28 44 0 58 -12 23 -21 -43 -10 -73 3 -85 38 -23 67 57 111
95 53z m-142 -7 c14 -23 -1 -36 -17 -15 -11 16 -14 16 -36 1 -20 -14 -22 -22
-17 -55 4 -23 2 -39 -3 -39 -9 0 -16 27 -23 89 -2 19 2 25 19 26 13 1 26 5 30
9 11 11 35 3 47 -16z m-2292 -5 c32 -29 23 -50 -27 -57 -25 -4 -45 -11 -45
-16 0 -13 28 -20 60 -13 17 3 30 1 30 -4 0 -19 -62 -24 -87 -8 -29 19 -31 67
-3 95 24 24 47 25 72 3z m1848 8 c0 -5 -10 -11 -22 -13 -15 -2 -24 -11 -26
-27 -3 -21 -1 -23 22 -17 13 3 27 2 31 -4 3 -5 -6 -12 -20 -16 -23 -6 -26 -11
-24 -43 4 -48 -15 -52 -21 -4 -4 32 -8 38 -27 36 -28 -3 -30 17 -3 24 12 3 20
14 20 27 0 12 5 27 12 34 14 14 58 16 58 3z m-2737 -191 c4 -69 3 -91 -2 -65
-5 22 -11 90 -14 150 -4 72 -3 94 2 65 5 -25 11 -92 14 -150z m2875 154 c43
-30 19 -114 -34 -114 -65 0 -82 95 -21 120 30 12 30 12 55 -6z m-438 -13 c0
-5 -9 -13 -21 -16 -15 -5 -19 -12 -15 -28 3 -12 6 -37 6 -54 0 -28 3 -33 25
-33 28 0 34 -15 9 -24 -24 -9 -84 -7 -84 3 0 5 8 11 18 13 15 4 18 13 15 39
-8 67 -13 79 -33 79 -36 0 -21 19 18 23 20 2 43 4 50 5 6 1 12 -2 12 -7z m142
-28 c19 -22 34 -103 19 -103 -5 0 -14 19 -18 43 -7 32 -14 43 -30 45 -26 4
-39 -31 -29 -73 5 -18 2 -25 -9 -25 -10 0 -15 10 -15 29 0 16 -3 43 -6 61 -6
28 -5 32 12 26 10 -3 26 -1 34 4 21 13 25 13 42 -7z m-308 -29 c25 -9 19 -21
-10 -21 -47 0 -50 -21 -6 -33 51 -13 59 -25 36 -51 -19 -21 -74 -23 -81 -3 -2
6 10 8 31 6 36 -4 59 14 29 24 -39 11 -68 30 -68 44 0 8 11 20 25 27 30 15 25
14 44 7z m-289 -14 c4 -6 -8 -10 -28 -10 -42 0 -58 -26 -24 -39 74 -29 77 -31
77 -55 0 -29 -25 -46 -69 -46 -47 0 -46 18 1 22 55 4 64 30 16 47 -69 26 -83
45 -53 75 18 18 70 22 80 6z m170 -17 c-4 -10 -13 -40 -21 -68 -19 -65 -33
-93 -51 -100 -28 -10 -36 8 -9 22 33 17 33 25 -4 85 -30 49 -37 68 -22 68 4 0
18 -20 30 -46 25 -51 37 -51 47 3 8 44 12 53 27 53 6 0 7 -7 3 -17z m-545 -34
c0 -24 4 -30 15 -25 8 3 21 8 28 11 25 10 49 -20 54 -68 4 -31 2 -47 -6 -47
-6 0 -11 10 -11 23 0 41 -12 67 -30 67 -28 0 -43 -26 -37 -65 5 -32 -5 -56
-16 -38 -11 19 -18 173 -8 173 6 0 11 -14 11 -31z m232 -6 c38 -34 15 -105
-37 -115 -13 -2 -20 -11 -20 -26 -1 -42 -20 -27 -27 22 -15 109 -15 119 10
121 12 1 25 5 29 8 11 11 25 8 45 -10z m-462 -23 c0 -16 -4 -30 -9 -30 -10 0
-22 40 -15 52 11 18 24 6 24 -22z m-160 12 c0 -4 -8 -18 -17 -32 -27 -39 -22
-111 11 -155 30 -39 28 -59 -3 -31 -26 24 -51 78 -51 112 0 31 37 114 51 114
5 0 9 -3 9 -8z m103 -19 c6 -32 3 -38 -12 -28 -13 8 -15 55 -2 55 5 0 11 -12
14 -27z m233 -40 c9 -35 -14 -75 -46 -83 -18 -4 -26 -14 -28 -33 -6 -52 -20
-27 -28 51 -5 42 -9 81 -9 86 0 5 13 10 29 12 15 1 31 5 33 8 11 11 43 -16 49
-41z m1319 -40 c32 -33 45 -63 45 -104 0 -35 -37 -112 -49 -104 -5 3 0 22 10
42 10 21 19 48 19 61 0 29 -37 101 -55 109 -16 6 -21 23 -6 23 4 0 21 -12 36
-27z m-111 -19 c8 -29 3 -39 -13 -29 -13 8 -15 55 -2 55 5 0 12 -12 15 -26z
m-54 -14 c0 -16 -4 -30 -9 -30 -10 0 -21 47 -13 55 13 13 22 3 22 -25z m330 5
c0 -8 -7 -15 -15 -15 -8 0 -15 7 -15 15 0 8 7 15 15 15 8 0 15 -7 15 -15z
m-746 -52 c2 -10 7 -44 11 -75 5 -48 10 -58 26 -58 31 0 22 -17 -12 -24 -45
-9 -69 -7 -69 4 0 6 9 10 20 10 15 0 20 6 19 28 -1 57 -14 107 -29 108 -29 3
-31 4 -25 14 10 17 53 11 59 -7z m181 -81 c-24 -84 -37 -107 -65 -110 -25 -3
-25 -3 4 21 l29 24 -36 61 c-23 40 -32 62 -23 62 7 0 21 -18 31 -40 21 -47 36
-47 47 1 14 54 20 66 25 51 3 -7 -3 -38 -12 -70z m595 28 c0 -4 -11 -17 -24
-29 -17 -16 -26 -19 -31 -10 -5 7 -1 16 9 21 14 8 15 12 5 25 -10 12 -10 16 2
24 13 8 39 -12 39 -31z m-880 -15 c18 -21 6 -29 -19 -13 -31 19 -56 -10 -52
-62 1 -24 -2 -40 -8 -40 -6 0 -11 10 -11 23 0 12 -3 40 -7 61 -5 34 -4 38 10
33 9 -3 19 -2 22 3 9 15 51 12 65 -5z m-160 -25 c32 -32 25 -47 -26 -55 -58
-8 -54 -31 5 -27 47 3 55 -13 11 -23 -41 -9 -69 2 -81 32 -12 33 -12 37 12 67
24 31 52 33 79 6z m583 3 c9 -9 -13 -34 -24 -27 -14 8 -11 34 4 34 8 0 17 -3
20 -7z m-729 -25 c31 -44 7 -108 -40 -108 -20 0 -24 -5 -24 -30 0 -55 -18 -31
-25 33 -3 34 -9 75 -12 90 -4 26 -3 28 15 23 11 -4 23 -2 27 4 11 17 43 11 59
-12z m5769 -13 c5 -31 -13 -28 -24 3 -6 16 -5 22 5 22 8 0 16 -11 19 -25z
m-5923 -5 c40 -40 15 -110 -40 -110 -44 0 -62 20 -58 65 2 30 9 42 28 52 34
17 47 16 70 -7z m-156 -6 c9 -3 16 -15 16 -27 0 -19 -1 -19 -18 -4 -17 15 -20
15 -41 1 -18 -13 -22 -24 -20 -55 3 -39 -7 -64 -15 -38 -2 8 -7 38 -10 67 -5
47 -3 52 12 48 9 -3 24 -1 32 4 18 11 23 12 44 4z m6224 -12 c3 -9 -2 -13 -14
-10 -9 1 -19 9 -22 16 -3 9 2 13 14 10 9 -1 19 -9 22 -16z m-448 -21 c0 -26
10 -32 33 -20 15 9 23 7 37 -7 21 -23 44 -107 27 -101 -6 2 -14 18 -18 35 -9
46 -28 66 -46 50 -11 -9 -14 -24 -9 -55 3 -24 2 -43 -3 -43 -9 0 -50 158 -43
165 9 8 22 -6 22 -24z m-5928 2 c39 -35 17 -100 -39 -117 -16 -5 -23 -15 -23
-32 0 -13 -4 -24 -9 -24 -7 0 -24 107 -26 164 0 5 10 10 22 11 13 1 26 5 30 8
11 11 25 8 45 -10z m6138 -13 c36 -36 18 -110 -27 -110 -11 0 -14 -6 -9 -25 4
-14 2 -25 -3 -25 -6 0 -15 19 -21 43 -6 23 -15 58 -21 77 -11 45 -11 53 1 45
5 -3 18 -1 27 4 25 15 30 14 53 -9z m-268 -37 c38 -44 24 -113 -22 -113 -17 0
-19 -5 -14 -25 3 -14 2 -25 -4 -25 -5 0 -18 33 -27 73 -23 94 -23 92 -3 89 9
-1 19 2 23 8 9 15 30 12 47 -7z m533 -14 c4 -13 0 -27 -11 -40 -21 -23 -34
-24 -34 -4 0 8 5 15 10 15 6 0 8 11 4 25 -8 32 21 36 31 4z m-1110 -19 c-5 -8
-11 -8 -17 -2 -6 6 -7 16 -3 22 5 8 11 8 17 2 6 -6 7 -16 3 -22z m313 -9 c3
-8 0 -11 -6 -7 -19 12 -52 -13 -52 -39 0 -29 15 -40 52 -37 15 1 28 -2 28 -8
0 -5 -3 -10 -7 -10 -5 0 -18 -3 -30 -6 -29 -8 -63 27 -63 65 0 47 65 81 78 42z
m-146 -13 c9 -7 21 -31 27 -53 13 -49 13 -55 2 -55 -6 0 -14 19 -18 43 -7 32
-14 43 -30 45 -27 4 -36 -22 -24 -66 7 -24 6 -32 -3 -32 -8 0 -16 17 -20 38
-3 20 -9 47 -12 59 -5 18 -3 21 14 16 11 -2 23 0 26 6 9 14 19 14 38 -1z
m-147 -59 c5 -31 13 -43 33 -50 21 -8 23 -12 12 -19 -20 -13 -90 -13 -90 0 0
6 9 10 21 10 18 0 20 4 14 33 -10 43 -13 47 -36 47 -11 0 -17 5 -14 10 3 6 17
10 30 10 19 0 24 -7 30 -41z m421 10 c10 -17 -13 -36 -27 -22 -12 12 -4 33 11
33 5 0 12 -5 16 -11z m-936 -77 l16 -78 -33 -11 c-40 -12 -67 3 -77 43 -9 32
16 74 44 74 15 0 20 7 20 25 0 50 15 23 30 -53z m268 66 c7 -7 12 -18 12 -25
0 -10 -4 -11 -19 -2 -10 7 -26 9 -36 5 -14 -5 -16 -14 -11 -51 9 -55 -9 -62
-19 -7 -3 20 -9 48 -12 62 -5 21 -4 23 8 13 11 -9 19 -8 33 3 24 17 29 17 44
2z m-132 -43 c21 -32 11 -45 -32 -45 -24 0 -34 -4 -31 -12 2 -7 20 -13 40 -13
39 0 52 -18 16 -23 -39 -6 -66 7 -79 38 -27 66 47 114 86 55z m-585 -80 c13
-59 19 -70 40 -75 30 -7 15 -17 -39 -26 -42 -7 -61 9 -23 19 17 4 18 9 7 63
-10 49 -16 60 -34 62 -24 4 -29 17 -9 25 31 13 42 0 58 -68z m296 57 c10 -6
36 -93 30 -98 -1 0 -17 -6 -36 -13 -40 -13 -64 0 -59 32 3 20 16 30 52 42 15
4 17 8 8 17 -9 9 -20 10 -42 1 -31 -12 -39 -6 -18 15 13 13 47 16 65 4z m544
-17 c-1 -15 -24 -12 -29 3 -3 9 2 13 12 10 10 -1 17 -7 17 -13z m-666 -19 c39
-59 -15 -128 -71 -92 -18 13 -24 25 -24 54 0 45 14 62 52 62 18 0 33 -8 43
-24z m-485 -21 c0 -10 10 -15 30 -15 17 0 30 -4 30 -10 0 -5 -9 -10 -20 -10
-26 0 -34 -19 -21 -53 8 -19 18 -27 35 -27 35 0 41 -17 10 -24 -33 -9 -51 7
-64 55 -8 30 -16 39 -33 39 -22 1 -22 1 -2 16 11 8 19 22 17 30 -2 8 2 14 8
14 5 0 10 -7 10 -15z m200 -15 c37 -37 18 -110 -28 -110 -33 0 -62 29 -62 62
0 60 51 87 90 48z m-573 -23 c-3 -7 -13 -51 -22 -98 -19 -91 -40 -143 -31 -74
11 78 38 185 48 185 6 0 8 -6 5 -13z m309 -61 c10 -51 10 -57 -5 -55 -9 1 -24
-2 -35 -6 -11 -5 -26 -4 -35 2 -16 10 -42 91 -34 106 8 14 23 -4 23 -29 0 -33
17 -64 35 -64 24 0 35 34 25 71 -12 42 -12 41 2 37 7 -3 18 -30 24 -62z m-164
27 c9 -10 19 -36 22 -59 7 -40 7 -40 -30 -52 -42 -13 -64 -3 -64 28 0 20 17
36 44 41 11 2 21 10 24 18 4 11 -4 13 -36 9 -31 -5 -39 -3 -35 7 2 8 14 16 26
18 12 2 25 5 28 6 3 0 13 -7 21 -16z m-568 -40 c6 -22 26 -133 26 -146 0 -5
-7 -7 -15 -4 -8 4 -17 2 -20 -3 -8 -13 -52 -13 -60 0 -4 6 -10 24 -15 40 -10
35 19 80 52 80 16 0 19 5 16 25 -6 28 8 35 16 8z m281 -3 c4 -6 -7 -10 -25
-10 -41 0 -35 -20 11 -35 45 -15 52 -50 13 -65 -28 -11 -64 -5 -64 11 0 5 8 8
18 7 60 -5 70 20 13 34 -36 10 -49 31 -31 53 14 17 56 20 65 5z m-131 -32 c25
-35 19 -45 -30 -53 -38 -5 -43 -9 -33 -21 8 -10 22 -12 45 -8 20 4 34 2 34 -4
0 -9 -32 -22 -57 -22 -22 0 -53 39 -53 67 0 57 64 84 94 41z m-4650 0 c3 -7 7
-25 10 -40 4 -19 13 -28 26 -28 26 0 25 -16 -1 -31 -18 -9 -20 -17 -16 -49 6
-44 -14 -80 -44 -80 -24 0 -24 7 0 28 20 17 31 100 18 132 -3 8 -7 24 -9 35
-2 12 -12 21 -26 23 -12 2 -22 8 -22 13 0 14 60 11 64 -3z m4189 -73 c11 -60
16 -70 38 -76 17 -4 20 -8 9 -12 -35 -13 -89 -17 -95 -7 -3 5 0 10 7 10 32 1
36 14 24 75 -10 50 -15 61 -34 63 -29 4 -28 20 1 24 32 6 36 -1 50 -77z m182
18 c3 -21 8 -49 11 -62 4 -18 1 -22 -10 -18 -9 4 -18 2 -21 -3 -10 -17 -54
-11 -63 8 -16 28 -25 102 -13 102 5 0 13 -21 17 -46 7 -49 25 -64 50 -43 12
10 15 24 10 56 -7 53 11 58 19 6z m-630 -4 c10 -15 -1 -23 -20 -15 -9 3 -13
10 -10 16 8 13 22 13 30 -1z m310 -29 c-61 -11 -58 -75 4 -75 38 0 41 -20 5
-29 -55 -14 -99 69 -56 106 25 22 45 27 61 14 11 -9 9 -12 -14 -16z m-430 -12
c-29 -127 -46 -183 -56 -192 -9 -8 -11 -7 -7 4 3 8 15 59 28 113 13 53 27 97
32 97 4 0 6 -10 3 -22z m305 -3 c17 -21 26 -105 11 -105 -6 0 -11 14 -11 31 0
59 -37 91 -59 50 -6 -10 -8 -35 -4 -55 3 -21 2 -36 -5 -36 -5 0 -13 21 -17 46
-3 26 -9 52 -12 60 -4 12 13 17 68 23 9 0 22 -6 29 -14z m-480 -20 c0 -14 0
-27 0 -30 0 -3 -3 -6 -7 -7 -8 -4 -23 49 -15 56 12 13 22 5 22 -19z m305 -10
c3 -14 7 -36 10 -50 4 -17 12 -25 25 -25 29 0 25 -19 -5 -25 -14 -3 -36 -7
-50 -10 -18 -4 -25 -1 -25 10 0 9 9 15 21 15 17 0 20 4 15 23 -3 12 -6 30 -6
40 0 11 -8 17 -25 17 -29 0 -34 16 -7 23 35 9 42 7 47 -18z m-575 -34 c-51
-15 -90 -20 -90 -11 0 8 39 15 95 17 15 1 13 -1 -5 -6z m-175 -28 c-11 -3 -29
-12 -40 -22 -20 -16 -20 -16 -1 7 11 12 29 21 40 21 20 -1 20 -2 1 -6z m-119
-29 c18 -14 18 -15 -5 -4 -18 9 -30 9 -49 0 -22 -10 -24 -9 -12 4 16 20 41 20
66 0z m-163 -17 c15 -10 10 -12 -30 -8 -40 4 -44 5 -23 12 36 10 34 10 53 -4z
m-323 -47 c-14 -4 -32 -8 -40 -9 -13 -1 -13 0 0 9 8 5 26 9 40 9 l25 -1 -25
-8z m50 -28 c0 -9 -4 -23 -8 -30 -5 -8 -8 1 -8 22 1 19 4 32 9 29 4 -2 7 -12
7 -21z m-168 1 c10 -9 18 -23 18 -32 0 -10 -5 -7 -13 9 -11 21 -19 25 -53 23
-30 -2 -34 0 -19 7 30 13 47 12 67 -7z m763 -13 c-20 -22 -42 -25 -65 -10 -11
8 -8 9 12 4 19 -4 32 0 45 13 24 26 32 19 8 -7z m-325 10 c0 -5 -12 -10 -27
-9 l-28 1 25 8 c14 4 26 8 28 9 1 1 2 -3 2 -9z m175 -30 c-18 -20 -59 -27 -69
-12 -3 5 7 7 23 4 17 -2 32 2 40 12 8 9 16 16 19 16 3 0 -3 -9 -13 -20z m-125
-35 c0 -12 -20 6 -31 28 l-11 22 21 -22 c11 -12 21 -25 21 -28z m-353 19 c-3
-3 -12 -4 -19 -1 -8 3 -5 6 6 6 11 1 17 -2 13 -5z m-139 -19 c-11 -11 -68 -23
-68 -15 0 5 10 11 23 13 35 7 51 7 45 2z m-153 -55 c-11 -5 -31 -8 -45 -8
l-25 0 25 8 c14 4 34 8 45 8 l20 1 -20 -9z m500 -19 c-21 -9 -137 -23 -119
-15 15 6 95 22 119 22 l20 1 -20 -8z m2733 -314 c2 -15 -1 -27 -7 -27 -6 0
-11 3 -11 8 0 4 -3 18 -7 31 -4 18 -2 23 8 19 8 -2 15 -17 17 -31z m150 -20
c2 -10 -3 -17 -12 -17 -10 0 -16 9 -16 21 0 24 23 21 28 -4z m3307 3 c3 -6 -1
-13 -9 -16 -17 -7 -16 -72 2 -114 6 -14 13 -33 16 -43 3 -11 15 -21 26 -24 26
-7 26 -23 0 -23 -21 0 -44 30 -54 71 -3 16 -15 29 -28 33 -22 6 -22 7 -5 20
13 10 17 21 12 36 -14 45 19 94 40 60z m-3785 -34 c0 -31 9 -37 31 -23 29 18
52 -2 66 -58 7 -27 11 -51 8 -53 -10 -10 -25 12 -25 37 0 15 -6 36 -14 46 -14
19 -15 19 -35 1 -15 -14 -19 -26 -14 -50 3 -17 6 -34 7 -37 0 -4 -3 -7 -9 -7
-10 1 -45 164 -37 173 10 9 22 -7 22 -29z m243 -39 c11 -35 -10 -79 -43 -87
-20 -5 -24 -11 -22 -33 2 -15 -1 -27 -6 -27 -8 0 -48 169 -40 174 2 1 17 7 33
12 37 14 65 -1 78 -39z m3260 -10 c35 -42 47 -119 27 -167 -17 -41 -30 -29
-17 18 14 52 2 106 -33 146 -17 19 -30 37 -30 41 0 15 25 -3 53 -38z m-140
-16 c25 -28 38 -53 42 -84 7 -48 -9 -117 -27 -117 -6 0 -7 9 -3 23 18 55 17
87 -5 132 -12 25 -31 50 -41 56 -10 5 -19 14 -19 19 0 19 18 9 53 -29z m-3437
21 c46 -30 39 -107 -11 -128 -27 -11 -32 -17 -28 -39 3 -14 1 -25 -5 -25 -5 0
-15 30 -22 68 -6 37 -14 79 -16 94 -4 22 -2 26 14 21 11 -2 23 0 26 6 8 13 26
14 42 3z m582 -20 c4 -29 -14 -52 -42 -52 -20 1 -20 1 -3 14 13 10 16 21 11
41 -6 23 -4 26 12 23 11 -2 20 -13 22 -26z m-1050 1 c-4 -22 -22 -20 -26 1 -2
10 3 16 13 16 10 0 15 -7 13 -17z m3772 -7 c0 -8 3 -21 6 -30 3 -9 1 -16 -5
-16 -13 0 -31 41 -24 53 7 12 23 8 23 -7z m-3870 -14 c0 -4 -14 -13 -31 -19
-39 -15 -33 -36 12 -44 l34 -6 -33 -13 c-22 -8 -31 -17 -28 -29 14 -51 15 -71
6 -71 -9 0 -14 15 -23 65 -2 14 -10 19 -25 18 -29 -3 -29 23 -1 30 15 4 20 11
15 23 -9 22 21 54 51 54 12 0 23 -4 23 -8z m294 -34 c-9 -53 -11 -56 -41 -60
-44 -5 -33 -23 13 -20 43 3 69 -14 59 -40 -9 -23 -48 -40 -81 -36 -23 2 -29 8
-30 28 -1 14 -2 27 -4 30 -1 3 -4 16 -5 30 -1 14 -5 33 -9 42 -11 25 27 58 69
58 33 0 34 -1 29 -32z m3470 26 c9 -3 16 -11 16 -16 0 -6 -7 -7 -16 -4 -23 9
-64 -20 -64 -44 0 -52 54 -100 82 -72 15 15 -1 52 -23 52 -25 0 -25 16 1 23
26 7 40 -12 43 -59 2 -36 0 -39 -27 -42 -40 -5 -73 15 -86 51 -16 48 -12 74
16 96 29 23 34 24 58 15z m-94 -146 c0 -10 -11 -25 -25 -34 -37 -24 -71 -6
-84 44 -20 72 -24 102 -14 102 6 0 16 -27 23 -60 14 -67 35 -88 65 -66 17 12
17 17 3 74 -9 34 -13 64 -9 67 6 7 41 -99 41 -127z m-3554 72 c6 -44 9 -50 30
-50 42 0 26 -17 -26 -27 -31 -6 -53 -7 -56 -1 -3 5 3 12 15 15 16 4 21 13 21
37 0 40 -12 58 -33 50 -12 -4 -17 -1 -17 10 0 11 9 16 30 16 28 0 30 -3 36
-50z m3378 14 c10 -9 14 -24 10 -38 -3 -15 0 -25 9 -29 43 -16 15 -83 -37 -89
-29 -3 -30 -1 -48 67 -22 87 -22 92 0 98 34 9 51 7 66 -9z m-3650 -26 c18 -29
31 -108 18 -108 -5 0 -14 21 -19 48 -7 41 -11 47 -33 47 -24 0 -25 -3 -25 -52
1 -37 -3 -53 -12 -53 -7 0 -13 12 -13 28 0 15 -3 44 -6 64 -6 33 -4 36 14 32
11 -3 23 -1 26 5 11 18 35 13 50 -11z m576 -4 c0 -8 -6 -14 -14 -14 -18 0 -29
27 -13 33 16 6 27 -1 27 -19z m2945 17 c3 -6 -11 -13 -30 -17 -50 -9 -44 -38
8 -42 43 -4 50 -19 10 -24 -22 -2 -28 -8 -28 -28 0 -22 5 -25 34 -26 19 0 36
-5 38 -11 4 -12 -68 -26 -79 -15 -6 7 -38 133 -38 152 0 8 17 12 67 19 6 0 14
-3 18 -8z m-3979 -35 c-3 -14 -15 -65 -27 -115 -11 -50 -25 -91 -31 -91 -6 0
-8 6 -5 14 3 7 16 59 28 115 13 55 27 101 32 101 5 0 6 -11 3 -24z m316 -3
c37 -33 18 -98 -35 -116 -24 -9 -67 34 -67 65 0 58 61 88 102 51z m3528 -1
c33 -27 40 -110 12 -135 -12 -11 -31 -17 -49 -15 -26 3 -29 9 -47 77 -15 61
-16 75 -5 82 23 14 65 10 89 -9z m-4020 -32 c0 -16 -4 -30 -10 -30 -5 0 -10 6
-10 14 0 8 -3 21 -6 30 -4 11 -1 16 10 16 11 0 16 -9 16 -30z m337 14 c2 -7
-2 -12 -9 -11 -36 1 -48 -5 -54 -28 -9 -37 13 -58 53 -52 39 7 44 -9 7 -23
-34 -13 -37 -13 -62 10 -28 26 -29 73 -1 101 21 21 60 23 66 3z m3408 -13 c3
-5 -4 -12 -15 -16 -13 -4 -19 -13 -16 -23 3 -9 10 -36 16 -59 8 -32 16 -43 30
-43 36 0 21 -18 -21 -25 -46 -8 -61 -1 -35 18 16 12 16 17 4 67 -10 39 -19 55
-31 55 -29 0 -23 20 8 26 45 10 53 10 60 0z m1665 -42 c16 -23 33 -57 36 -77
8 -43 -6 -104 -25 -110 -11 -4 -12 0 -6 14 26 63 17 117 -31 172 -25 30 -31
42 -20 42 9 0 29 -19 46 -41z m-1805 12 c3 -5 -9 -11 -27 -13 -51 -5 -44 -36
12 -57 48 -18 63 -48 40 -77 -14 -16 -76 -19 -85 -4 -4 6 6 10 22 10 67 1 69
42 4 60 -45 12 -64 47 -41 75 14 17 65 20 75 6z m1689 -17 c6 -24 2 -43 -8
-33 -11 10 -17 59 -8 59 5 0 13 -12 16 -26z m-5569 7 c-33 -13 -95 -20 -95
-11 0 8 37 15 95 18 l20 1 -20 -8z m5523 -24 c2 -15 -1 -27 -7 -27 -6 0 -11 6
-11 14 0 8 -3 22 -7 32 -4 12 -2 15 8 12 8 -2 15 -17 17 -31z m300 9 c3 -12
-1 -17 -10 -14 -7 3 -15 13 -16 22 -3 12 1 17 10 14 7 -3 15 -13 16 -22z
m-2077 -7 c29 -29 21 -61 -19 -79 -30 -13 -33 -18 -28 -47 9 -64 -12 -32 -29
42 -20 93 -21 89 7 97 38 10 47 9 69 -13z m-173 -35 l-4 -29 -12 28 c-13 31
-7 56 10 39 5 -5 8 -22 6 -38z m1857 -29 c14 -59 22 -75 37 -75 25 0 23 -16
-4 -24 -34 -9 -68 -7 -68 3 0 5 9 11 19 14 18 4 18 6 1 68 -10 38 -23 65 -31
65 -28 3 -30 4 -24 14 3 6 16 10 29 10 19 0 24 -10 41 -75z m-5614 54 c-14 -5
-32 -15 -40 -22 -9 -6 -8 -2 3 11 11 12 29 22 40 21 19 0 19 -1 -3 -10z m3623
-27 c-28 -53 -7 -137 43 -179 30 -24 26 -42 -4 -22 -33 20 -65 77 -70 122 -5
46 19 123 36 113 6 -4 4 -17 -5 -34z m-3728 -15 c5 -9 4 -9 -7 1 -24 22 -67
15 -83 -15 -8 -16 -15 -24 -16 -20 0 18 23 49 43 56 23 9 51 -1 63 -22z m3627
-65 c21 -94 21 -103 3 -96 -8 3 -17 1 -21 -5 -14 -23 -45 -11 -62 24 -21 44
-9 86 27 95 20 5 25 12 23 33 -4 55 14 25 30 -51z m-3809 62 c9 -3 16 -11 16
-16 0 -6 -6 -6 -14 1 -8 7 -26 9 -43 6 -21 -5 -24 -4 -13 4 17 12 32 14 54 5z
m5630 -32 c12 2 23 -1 26 -7 3 -5 -5 -11 -17 -13 -26 -4 -29 -19 -11 -57 8
-18 19 -25 40 -25 34 0 37 -16 4 -22 -35 -7 -54 8 -66 52 -8 29 -16 40 -30 40
-24 0 -26 15 -4 24 9 3 14 12 11 20 -9 23 7 29 17 7 6 -14 17 -20 30 -19z
m173 16 c9 -12 33 -87 33 -102 0 -3 -4 -6 -8 -6 -4 0 -13 20 -20 45 -17 63
-36 59 -28 -5 4 -29 3 -50 -3 -50 -5 0 -12 20 -15 45 -4 24 -11 47 -17 50 -16
11 -22 -25 -11 -63 11 -34 9 -52 -4 -40 -8 9 -34 111 -29 116 3 3 18 5 35 6
16 1 30 4 30 9 0 12 27 8 37 -5z m523 -8 c12 -22 -5 -60 -27 -60 -16 0 -17 12
-1 28 8 8 8 15 0 25 -12 13 -7 27 9 27 5 0 13 -9 19 -20z m-880 -13 c0 -31 8
-38 30 -25 35 22 62 -7 77 -84 3 -16 1 -28 -5 -28 -5 0 -13 15 -16 33 -3 19
-13 42 -21 53 -13 18 -15 18 -31 2 -16 -15 -17 -24 -7 -58 6 -22 7 -43 2 -46
-4 -2 -13 12 -18 33 -6 21 -17 62 -25 91 -13 45 -13 52 0 52 8 0 14 -10 14
-23z m-5770 -17 c-34 -11 -60 -11 -35 0 11 5 29 8 40 8 16 0 15 -2 -5 -8z
m3660 -10 c0 -11 -4 -20 -9 -20 -11 0 -22 26 -14 34 12 12 23 5 23 -14z m1360
11 c0 -15 -10 -18 -72 -26 -74 -9 -79 10 -5 23 71 13 77 13 77 3z m-4670 -5
c0 -3 -4 -8 -10 -11 -5 -3 -10 -1 -10 4 0 6 5 11 10 11 6 0 10 -2 10 -4z
m-482 -21 c-10 -8 -78 -12 -78 -5 0 5 15 10 33 12 29 3 53 0 45 -7z m182 -5
c0 -11 -2 -20 -4 -20 -2 0 -6 9 -9 20 -3 11 -1 20 4 20 5 0 9 -9 9 -20z m601
-11 c-25 -21 -39 -23 -59 -11 -8 6 -1 9 20 9 18 0 36 6 42 16 6 9 13 14 16 11
3 -3 -6 -14 -19 -25z m3325 23 c10 -7 34 -45 34 -55 0 -3 -18 -8 -40 -12 -22
-4 -42 -11 -45 -16 -8 -12 39 -22 65 -14 16 5 21 3 18 -6 -6 -18 -51 -23 -77
-9 -29 15 -38 75 -16 100 19 21 42 25 61 12z m1424 -8 c0 -17 -22 -14 -28 4
-2 7 3 12 12 12 9 0 16 -7 16 -16z m-5080 -3 c0 -5 -11 -11 -25 -13 -14 -3
-25 -2 -25 3 0 4 10 10 23 12 12 2 23 5 25 6 1 0 2 -3 2 -8z m3245 -12 c-4 -5
-14 -9 -25 -9 -21 0 -32 -21 -20 -39 4 -8 16 -10 28 -7 11 4 23 3 26 -3 3 -5
-6 -12 -20 -15 -25 -7 -26 -9 -20 -57 8 -60 -8 -59 -18 1 -5 31 -11 40 -26 40
-26 0 -34 17 -11 23 13 3 21 15 23 38 2 26 9 35 28 40 28 7 43 2 35 -12z m274
-3 c16 -20 40 -105 31 -111 -4 -3 -13 17 -20 44 -13 56 -30 68 -55 41 -15 -16
-16 -26 -7 -60 5 -22 6 -40 1 -40 -5 0 -11 12 -15 28 -3 15 -9 41 -13 57 -7
27 -4 31 23 41 42 16 42 16 55 0z m-3334 -16 c-19 -21 -51 -26 -75 -10 -10 7
-4 8 20 4 26 -4 40 -1 49 10 7 9 16 16 19 16 3 0 -3 -9 -13 -20z m4805 11 c0
-5 -10 -11 -22 -13 -33 -4 -32 -43 1 -43 32 0 39 -22 9 -27 -13 -2 -22 -8 -21
-13 1 -6 4 -28 8 -50 9 -49 -9 -37 -22 15 -7 25 -16 36 -31 38 -27 4 -29 18
-3 25 14 3 18 11 14 26 -3 12 0 28 7 36 14 16 60 21 60 6z m278 -28 c0 -43
-12 -63 -39 -63 -11 0 -19 -5 -19 -11 0 -8 12 -10 34 -6 21 3 41 0 52 -8 16
-11 17 -16 5 -38 -14 -26 -67 -42 -87 -26 -6 5 -16 40 -23 79 -16 88 -9 100
66 109 6 0 11 -14 11 -36z m-5228 2 c13 -14 19 -25 14 -25 -8 1 -50 50 -41 50
2 0 14 -11 27 -25z m3319 -22 c6 -21 11 -44 11 -50 0 -7 9 -13 20 -13 22 0 28
-18 8 -24 -39 -12 -78 -14 -78 -5 0 6 9 13 20 16 16 4 19 11 14 32 -11 43 -23
61 -39 55 -15 -6 -21 7 -8 19 18 19 43 5 52 -30z m-3659 17 c0 -5 -15 -9 -32
-9 l-33 1 30 8 c17 4 31 8 33 9 1 0 2 -3 2 -9z m5400 -32 c17 -66 19 -70 35
-64 15 5 31 -9 18 -17 -20 -12 -93 -18 -93 -8 0 6 6 11 14 11 22 0 26 13 15
53 -7 27 -15 37 -29 37 -38 0 -21 22 22 29 4 0 12 -18 18 -41z m-5540 18 c-8
-8 -28 -17 -45 -21 -29 -5 -29 -5 -5 6 14 6 32 15 40 19 23 13 26 12 10 -4z
m3398 -38 c22 -104 25 -131 14 -124 -6 3 -23 1 -37 -6 -25 -11 -29 -10 -47 12
-13 16 -18 35 -16 59 2 30 9 39 36 51 26 12 31 19 27 38 -3 12 -2 22 3 22 5 0
14 -24 20 -52z m146 0 c24 -35 19 -45 -25 -52 -49 -8 -48 -30 2 -32 51 -2 55
-3 39 -14 -61 -40 -136 34 -96 95 21 32 59 33 80 3z m1750 -10 c19 -29 34
-114 18 -104 -5 3 -13 24 -17 45 -9 53 -32 73 -52 46 -14 -19 -13 -48 3 -89 5
-13 3 -17 -6 -14 -8 2 -19 29 -26 59 -17 70 -17 72 1 66 8 -4 17 -2 20 3 11
18 44 10 59 -12z m534 5 c-4 -22 -22 -20 -26 1 -2 10 3 16 13 16 10 0 15 -7
13 -17z m-654 -55 c22 -63 -27 -108 -80 -74 -21 15 -25 23 -22 59 2 33 8 44
28 54 30 15 60 -1 74 -39z m-5329 32 c-11 -5 -33 -8 -50 -8 l-30 0 30 8 c17 4
39 8 50 8 l20 1 -20 -9z m460 -26 c-73 -16 -92 -17 -79 -5 9 10 55 17 109 18
17 1 4 -5 -30 -13z m4709 7 c3 -5 -7 -11 -23 -14 -34 -7 -45 -37 -24 -67 12
-17 22 -21 45 -16 21 4 28 2 26 -7 -7 -19 -58 -20 -79 -1 -22 20 -26 83 -7
102 14 14 54 16 62 3z m-2535 -76 c35 -40 55 -102 45 -142 -10 -42 -34 -84
-44 -78 -5 3 -2 18 6 33 29 56 13 142 -35 186 -12 11 -21 23 -21 28 0 17 19 7
49 -27z m2271 20 c18 -21 6 -29 -19 -13 -17 11 -23 10 -37 -4 -14 -14 -15 -23
-6 -57 5 -23 6 -43 2 -46 -4 -2 -13 17 -20 43 -7 26 -14 55 -17 65 -4 15 -1
18 16 12 12 -4 21 -2 21 4 0 17 46 13 60 -4z m-153 -20 c12 -8 24 -28 28 -44
17 -77 -75 -113 -105 -41 -16 38 -5 78 23 90 30 12 30 12 54 -5z m-2255 -30
c3 -14 1 -28 -4 -31 -12 -8 -14 -5 -22 29 -5 20 -3 27 8 27 7 0 16 -11 18 -25z
m2128 0 c18 -21 6 -29 -19 -13 -17 11 -23 10 -37 -4 -14 -14 -15 -23 -6 -57 5
-23 6 -43 1 -46 -7 -5 -15 18 -33 98 -6 25 -4 28 14 22 11 -4 20 -2 20 4 0 17
46 13 60 -4z m-2240 -15 c0 -5 -16 -12 -36 -16 -28 -5 -35 -10 -32 -28 3 -18
9 -21 41 -18 47 4 49 -14 1 -22 -31 -6 -35 -10 -32 -34 3 -25 6 -27 46 -24 47
4 58 -14 15 -23 -75 -16 -70 -21 -84 67 -5 35 -12 71 -15 80 -3 11 2 18 18 21
43 8 78 7 78 -3z m1777 -97 c-10 -60 -21 -110 -23 -112 -11 -12 -11 12 2 99
17 108 20 120 32 120 5 0 0 -48 -11 -107z m322 88 c14 -25 2 -35 -19 -16 -15
14 -19 13 -35 -5 -15 -16 -16 -26 -7 -60 7 -30 7 -40 -2 -40 -7 0 -17 26 -24
62 -11 61 -9 85 7 60 6 -10 11 -10 21 3 17 21 47 19 59 -4z m-462 -88 c15 -63
21 -77 36 -75 10 2 17 -3 17 -13 0 -8 -6 -15 -12 -15 -7 0 -30 -3 -50 -6 -40
-7 -55 9 -18 19 22 6 23 19 6 92 -7 31 -17 51 -26 51 -29 3 -31 4 -25 14 3 6
17 10 30 10 21 0 25 -8 42 -77z m313 57 c31 -31 25 -48 -21 -57 -51 -10 -51
-28 1 -28 48 0 54 -17 9 -27 -60 -12 -104 68 -62 114 21 24 48 23 73 -2z
m-2161 -60 l13 -70 39 0 c21 0 39 -4 39 -9 0 -10 -78 -26 -87 -18 -6 7 -32
124 -33 150 0 9 4 17 8 17 5 0 14 -31 21 -70z m-89 51 c0 -5 -9 -13 -21 -16
-11 -4 -18 -13 -16 -20 3 -7 9 -33 12 -59 6 -40 10 -46 32 -46 40 0 21 -24
-26 -33 -50 -10 -65 -1 -35 19 20 14 20 18 10 72 -9 42 -16 57 -29 57 -29 0
-23 20 8 26 46 10 65 10 65 0z m3010 -10 c0 -11 -128 -36 -137 -27 -10 10 2
16 48 25 60 12 89 13 89 2z m-3160 -22 c0 -5 -9 -9 -19 -9 -33 0 -51 -11 -51
-31 0 -15 7 -19 40 -19 22 0 40 -4 40 -10 0 -5 -10 -10 -22 -10 -40 0 -50 -14
-43 -54 5 -22 3 -36 -3 -36 -6 0 -15 33 -22 73 -6 39 -13 77 -15 84 -2 7 13
16 38 21 44 9 57 7 57 -9z m1770 -25 c0 -9 11 -14 30 -14 17 0 30 -4 30 -10 0
-5 -9 -10 -20 -10 -26 0 -34 -22 -23 -57 7 -21 18 -29 44 -34 34 -6 34 -6 9
-16 -36 -15 -58 1 -71 52 -8 33 -16 45 -30 45 -11 0 -19 5 -19 10 0 6 7 10 16
10 9 0 14 8 13 18 -2 27 0 34 11 27 6 -3 10 -13 10 -21z m219 -6 c15 -39 23
-108 14 -108 -6 0 -14 21 -19 47 -5 25 -15 49 -23 51 -11 4 -13 -6 -7 -52 4
-34 2 -56 -4 -56 -5 0 -12 23 -16 50 -5 35 -11 50 -22 50 -12 0 -14 -10 -9
-55 3 -30 2 -55 -2 -55 -10 0 -35 120 -26 128 3 3 21 6 40 6 19 0 35 4 35 8 0
18 31 6 39 -14z m-389 -7 c0 -11 3 -26 6 -35 5 -13 8 -14 28 -1 30 20 54 2 66
-50 12 -51 12 -65 1 -65 -6 0 -13 21 -17 46 -7 49 -25 64 -50 43 -12 -10 -15
-24 -10 -61 11 -80 -10 -54 -28 35 -19 96 -19 107 -6 107 6 0 10 -9 10 -19z
m-92 -106 c-20 -109 -24 -123 -33 -113 -6 5 31 203 41 219 13 22 12 0 -8 -106z
m-1801 88 c3 -7 -3 -9 -16 -6 -35 9 -71 -22 -71 -62 0 -53 43 -89 78 -66 19
12 11 56 -10 56 -27 0 -22 20 6 23 21 3 25 -2 31 -38 8 -49 -5 -70 -47 -70
-69 0 -106 104 -56 157 24 25 78 29 85 6z m-157 -14 c0 -6 -9 -13 -21 -16 -16
-4 -19 -11 -15 -32 3 -14 8 -43 12 -63 5 -33 10 -38 33 -38 25 -1 25 -1 7 -15
-22 -17 -96 -20 -96 -5 0 6 9 10 21 10 19 0 20 4 13 58 -8 68 -10 72 -35 72
-29 0 -23 19 9 26 15 3 32 7 37 9 21 7 35 5 35 -6z m-156 -28 c7 -10 -16 -21
-44 -21 -23 0 -32 -13 -24 -34 5 -13 14 -15 41 -10 28 5 35 4 31 -7 -3 -8 -18
-16 -34 -19 -27 -5 -29 -8 -26 -48 5 -61 -14 -52 -22 11 -3 28 -9 69 -12 89
-6 34 -5 37 22 41 52 7 63 7 68 -2z m-131 -101 c22 -124 10 -132 -53 -35 -24
36 -45 64 -47 62 -2 -3 1 -33 6 -68 10 -59 8 -80 -4 -67 -3 3 -12 42 -19 88
-11 69 -11 83 1 87 17 7 12 11 58 -60 20 -32 39 -56 42 -54 2 3 0 31 -6 62 -9
49 -7 84 4 73 2 -2 10 -41 18 -88z m2122 71 c3 -5 -7 -11 -22 -13 -40 -5 -40
-26 2 -34 57 -10 68 -56 18 -75 -27 -10 -63 -4 -63 11 0 5 16 10 35 12 47 4
46 20 -2 33 -40 11 -53 35 -33 60 14 17 56 20 65 6z m-345 -27 c0 -11 9 -15
31 -12 33 3 43 -14 12 -20 -30 -6 -36 -19 -23 -56 10 -30 16 -36 41 -36 37 0
38 -16 2 -23 -31 -7 -63 21 -63 53 0 32 -11 50 -31 50 -10 0 -19 5 -19 10 0 6
7 10 15 10 9 0 15 10 15 26 0 14 4 23 10 19 6 -3 10 -13 10 -21z m209 -10 c30
-39 26 -51 -20 -57 -22 -3 -44 -8 -47 -12 -13 -12 24 -25 57 -18 26 4 33 3 29
-8 -7 -23 -71 -23 -92 0 -26 28 -24 80 4 103 30 24 45 23 69 -8z m-2154 -4 c9
-10 20 -38 22 -62 12 -103 -99 -138 -127 -40 -14 52 -13 66 11 96 25 32 68 35
94 6z m-156 -13 c8 -11 5 -14 -19 -14 -42 0 -60 -19 -60 -64 0 -50 23 -73 67
-66 40 7 44 -9 6 -24 -19 -7 -35 -7 -51 0 -29 14 -56 75 -47 110 14 56 76 91
104 58z m1840 -69 c14 -73 16 -78 40 -78 36 0 14 -19 -35 -30 -44 -10 -76 6
-35 17 22 5 23 9 17 55 -9 63 -23 101 -36 93 -14 -8 -32 4 -24 16 3 6 18 9 32
7 25 -3 28 -8 41 -80z m185 19 c17 -82 17 -82 -22 -94 -76 -24 -101 36 -29 70
20 10 35 23 31 28 -8 13 -48 11 -63 -3 -10 -11 -12 -9 -9 7 4 22 45 36 70 23
10 -5 20 -19 22 -31z m-2339 2 c4 -6 -3 -13 -15 -16 -20 -5 -22 -10 -16 -51 3
-25 6 -53 6 -63 0 -14 7 -19 25 -19 14 0 25 -4 25 -9 0 -10 -13 -15 -67 -26
-38 -8 -54 11 -20 24 23 9 24 11 14 70 -9 55 -12 61 -33 61 -30 0 -31 18 -1
24 47 11 62 14 69 15 4 0 10 -4 13 -10z m1285 2 c0 -10 -25 -17 -97 -27 -68
-8 -71 10 -5 24 62 13 102 14 102 3z m-1456 -27 c28 -11 17 -23 -21 -26 -30
-2 -38 -7 -38 -23 0 -14 10 -22 36 -30 40 -11 69 -32 69 -48 0 -23 -44 -57
-74 -57 -25 0 -74 18 -56 20 3 1 22 2 43 4 69 5 78 49 12 62 -65 12 -79 71
-22 94 28 11 32 11 51 4z m2210 -16 c31 -43 9 -118 -35 -118 -14 0 -19 -7 -19
-30 0 -58 -17 -29 -29 48 -7 42 -15 85 -18 95 -4 16 -1 18 16 12 12 -4 21 -2
21 4 0 20 49 11 64 -11z m-136 -30 c17 -55 22 -98 12 -98 -5 0 -12 17 -15 38
-9 52 -13 62 -25 62 -8 0 -12 -11 -12 -40 -1 -3 2 -20 5 -37 5 -24 3 -33 -7
-33 -9 0 -16 18 -20 51 -9 69 -32 61 -28 -10 3 -64 -13 -67 -22 -3 -4 26 -10
56 -13 66 -4 14 -1 18 11 13 8 -3 18 -1 22 4 3 6 17 8 30 5 14 -4 24 -2 24 4
0 24 29 7 38 -22z m-2216 5 c36 -32 18 -74 -43 -100 -22 -9 -25 -16 -21 -42 2
-17 0 -31 -6 -31 -11 0 -17 28 -27 117 -7 59 -7 61 16 66 47 9 63 7 81 -10z
m1717 -107 c-12 -57 -26 -111 -30 -118 -18 -29 -16 3 7 102 28 122 32 135 40
127 3 -3 -4 -53 -17 -111z m121 93 c0 -17 5 -20 30 -17 35 4 41 -16 5 -20 -27
-4 -32 -23 -15 -66 7 -21 16 -26 42 -26 34 0 29 -13 -8 -24 -30 -9 -50 13 -58
63 -5 32 -11 41 -26 41 -23 0 -27 15 -5 24 8 3 15 15 15 26 0 11 5 20 10 20 6
0 10 -9 10 -21z m-2030 -19 c0 -32 -14 -40 -24 -14 -10 27 -7 44 9 44 10 0 15
-10 15 -30z m2240 10 c34 -34 26 -57 -21 -63 -22 -3 -44 -8 -47 -12 -13 -13
24 -24 63 -19 38 5 39 4 21 -10 -46 -37 -106 -8 -106 52 0 64 50 92 90 52z
m-2380 3 c-1 -5 -7 -19 -15 -33 -17 -30 -19 -113 -4 -143 6 -12 21 -32 32 -44
28 -31 13 -42 -17 -13 -33 30 -56 81 -56 122 0 38 34 118 50 118 5 0 10 -3 10
-7z m1914 -28 c8 -31 -2 -54 -15 -34 -11 18 -11 59 0 59 5 0 12 -11 15 -25z
m-52 -15 c3 -17 1 -33 -4 -36 -12 -8 -14 -5 -21 34 -5 23 -3 32 7 32 8 0 16
-14 18 -30z m-102 11 c0 -6 -4 -13 -10 -16 -5 -3 -14 -24 -20 -45 -14 -53 1
-110 40 -149 17 -17 26 -32 20 -36 -14 -9 -58 38 -76 80 -18 45 -18 85 2 135
14 35 44 56 44 31z m-1896 -78 c4 -43 10 -86 13 -96 4 -15 1 -18 -15 -13 -11
4 -23 2 -27 -4 -3 -5 -16 -10 -27 -10 -66 0 -61 132 5 142 16 2 23 11 25 31 6
52 20 27 26 -50z m990 7 c-10 -10 -101 -30 -137 -30 -33 0 -4 22 40 30 59 12
109 12 97 0z m-1516 -17 c-4 -22 -22 -20 -26 1 -2 10 3 16 13 16 10 0 15 -7
13 -17z m2087 -3 c-6 -17 -2 -20 30 -20 42 0 39 -15 -5 -24 -30 -5 -31 -8 -28
-48 3 -39 6 -43 31 -46 36 -4 35 -22 -2 -22 -38 0 -51 18 -48 66 2 32 -1 38
-15 36 -24 -4 -23 15 2 28 11 6 20 20 20 30 0 11 5 20 11 20 6 0 8 -9 4 -20z
m-1726 -16 c32 -41 27 -53 -29 -60 -27 -4 -50 -10 -50 -13 0 -19 26 -28 61
-24 25 4 39 2 39 -6 0 -6 -8 -11 -17 -11 -10 0 -28 -3 -40 -6 -30 -8 -63 27
-63 69 0 33 18 58 50 70 25 9 28 8 49 -19z m1941 -11 c0 -27 -31 -53 -62 -53
-23 0 -29 -4 -26 -17 3 -14 12 -17 41 -15 47 4 49 -15 2 -24 -46 -8 -65 8 -65
55 0 44 22 78 53 83 29 5 57 -9 57 -29z m-2412 5 c-3 -7 -15 -15 -29 -18 -15
-4 -25 -14 -27 -28 -3 -19 1 -22 27 -22 39 0 40 -16 2 -23 -27 -6 -28 -7 -23
-56 3 -33 1 -51 -6 -51 -6 0 -12 21 -14 48 -3 42 -5 47 -25 45 -15 -2 -23 3
-23 12 0 8 9 15 20 15 15 0 20 7 20 29 0 30 13 46 45 54 33 8 37 7 33 -5z
m310 -10 c14 -18 26 -118 14 -118 -5 0 -13 23 -18 52 -10 59 -24 68 -54 38
-18 -18 -20 -28 -14 -66 4 -26 2 -44 -4 -44 -9 0 -22 68 -22 115 0 18 4 22 19
18 10 -3 22 0 25 6 10 15 41 14 54 -1z m1590 -165 c9 3 26 8 37 13 20 7 20 7
1 -15 -13 -14 -29 -21 -45 -19 -25 3 -26 5 -29 87 -2 46 1 91 5 100 5 9 9 -23
11 -78 2 -82 5 -93 20 -88z m202 88 c0 -64 -1 -69 -20 -64 -11 3 -20 1 -20 -5
0 -17 -39 -25 -55 -12 -22 18 -19 83 5 113 12 16 33 27 53 30 17 2 33 5 35 5
1 1 2 -29 2 -67z m-1980 4 c4 -42 8 -50 28 -53 21 -3 29 -17 15 -25 -20 -11
-103 -17 -103 -8 0 6 12 14 26 17 20 5 24 11 20 28 -3 11 -6 31 -6 44 0 17 -6
22 -25 22 -29 0 -34 16 -7 23 38 11 47 3 52 -48z m-446 -102 c6 -57 6 -61 -12
-56 -11 2 -23 0 -26 -6 -12 -18 -54 -13 -66 8 -16 31 -12 86 8 103 9 8 30 18
45 22 21 5 28 12 27 29 -7 87 13 5 24 -100z m2107 91 c33 -40 -3 -129 -55
-136 -14 -2 -22 -11 -24 -28 -2 -14 -8 -29 -13 -35 -7 -6 -9 26 -7 93 2 80 6
101 16 97 8 -3 23 2 35 10 27 19 31 19 48 -1z m-1957 -10 c25 -25 20 -53 -11
-59 -16 -4 -39 -8 -51 -11 -20 -4 -22 -7 -11 -20 9 -11 23 -13 51 -9 45 8 53
-10 8 -20 -41 -9 -69 2 -81 32 -13 35 -11 47 12 77 23 29 60 34 83 10z m-504
3 c0 -1 -9 -20 -20 -42 -35 -68 -26 -130 27 -186 18 -20 21 -29 12 -35 -18
-10 -67 51 -80 101 -12 42 -1 99 27 143 12 18 34 31 34 19z m2322 -19 c3 -7 1
-40 -2 -73 -8 -69 -12 -64 -10 13 1 28 -3 52 -8 52 -14 0 -32 -47 -32 -85 0
-19 -5 -37 -12 -41 -8 -5 -10 8 -5 49 3 31 2 59 -3 62 -15 9 -31 -23 -37 -74
-8 -72 -19 -56 -15 24 3 52 7 65 18 61 8 -3 14 -1 14 5 0 7 10 9 24 5 14 -3
28 -2 31 4 9 14 32 12 37 -2z m-307 -7 c-6 -5 -19 -11 -30 -13 -16 -3 -20 -12
-23 -53 -3 -74 -12 -115 -23 -115 -6 0 -8 4 -5 8 2 4 5 39 7 77 l2 70 -27 -2
c-37 -3 -29 20 10 28 46 10 99 10 89 0z m133 -23 c7 -7 12 -18 12 -26 0 -16
-24 -42 -39 -42 -5 0 -22 -5 -37 -10 -37 -15 -16 -36 31 -31 46 4 45 -15 -2
-22 -42 -7 -51 -3 -63 29 -24 63 55 145 98 102z m786 -165 c38 -55 45 -116 17
-177 -11 -26 -25 -45 -31 -41 -6 4 -5 14 4 28 36 56 27 141 -19 191 -14 15
-25 32 -25 37 0 20 25 2 54 -38z m-134 18 c0 -6 -4 -12 -9 -15 -5 -3 -13 -25
-19 -49 -14 -55 -1 -106 39 -151 38 -44 22 -55 -19 -13 -55 58 -66 120 -32
195 17 38 40 57 40 33z m295 -31 c0 -22 -29 -18 -33 3 -3 14 1 18 15 15 10 -2
18 -10 18 -18z m-2419 -92 c8 -75 11 -83 32 -86 22 -3 29 -16 14 -26 -20 -12
-112 -18 -112 -7 0 6 12 14 26 17 25 6 26 9 20 52 -3 25 -6 58 -6 73 0 24 -4
29 -25 29 -24 0 -32 10 -18 23 3 4 19 7 34 7 27 0 27 -1 35 -82z m1902 44 c3
-32 15 -41 27 -22 10 16 49 11 61 -8 7 -10 15 -42 19 -71 6 -43 5 -53 -6 -49
-8 3 -18 28 -22 56 -7 40 -13 52 -27 52 -30 0 -42 -25 -35 -74 6 -37 4 -46 -7
-46 -11 0 -17 16 -21 53 -3 28 -9 74 -13 101 -6 39 -4 48 7 44 8 -2 15 -19 17
-36z m-2398 -42 c0 -5 7 -10 15 -10 8 0 15 -6 15 -14 0 -8 -7 -16 -15 -20 -27
-10 -18 -54 15 -71 44 -23 35 -76 -16 -95 -13 -5 -24 -17 -24 -27 -1 -16 -2
-16 -13 -2 -7 8 -20 18 -29 22 -26 9 -22 34 5 33 17 -1 23 5 25 26 3 22 -2 30
-21 37 -14 6 -28 15 -32 21 -12 19 3 56 30 70 14 7 25 19 25 27 0 7 5 13 10
13 6 0 10 -4 10 -10z m139 -13 c8 -20 15 -23 41 -19 42 6 37 -21 -6 -28 -25
-5 -29 -10 -26 -35 4 -48 10 -55 43 -55 40 0 34 -24 -8 -28 -37 -4 -53 14 -60
68 -4 30 -10 40 -24 40 -23 0 -25 18 -4 26 8 4 15 14 15 23 0 16 8 31 17 31 2
0 7 -11 12 -23z m1971 3 c0 -19 4 -20 36 -14 28 5 36 4 32 -7 -2 -7 -15 -16
-29 -19 -17 -4 -25 -14 -27 -34 -4 -36 13 -56 50 -56 19 0 28 -4 26 -12 -3 -8
-21 -13 -44 -13 -41 0 -44 4 -59 78 -4 18 -11 27 -22 25 -24 -4 -27 19 -3 25
17 4 20 11 15 26 -5 15 -2 21 9 21 9 0 16 -9 16 -20z m220 -6 c0 -7 -6 -11
-14 -8 -26 10 -56 -15 -56 -45 0 -39 23 -57 55 -43 26 12 43 1 22 -16 -30 -24
-56 -23 -82 2 -29 29 -32 71 -7 103 26 33 82 38 82 7z m608 -2 c4 -25 -23 -62
-45 -62 -18 0 -17 19 3 27 11 4 13 13 9 35 -6 25 -4 29 12 26 10 -2 19 -13 21
-26z m-2574 -1 c39 -43 16 -121 -40 -135 -19 -5 -24 -13 -24 -36 0 -19 -5 -30
-14 -30 -10 0 -16 24 -22 93 -5 50 -8 97 -9 102 0 6 8 9 18 7 9 -2 25 2 35 7
25 15 37 13 56 -8z m1506 -11 c0 -6 -13 -13 -30 -16 -24 -5 -30 -12 -30 -31 0
-22 3 -24 30 -18 23 5 30 3 30 -8 0 -8 -13 -17 -30 -21 -26 -5 -30 -9 -25 -31
3 -14 7 -36 10 -50 4 -17 1 -25 -8 -25 -8 0 -17 19 -23 48 -8 41 -12 47 -31
44 -16 -2 -23 2 -23 12 0 9 9 16 20 16 15 0 20 7 20 27 0 14 7 35 17 45 17 19
73 25 73 8z m132 -34 c10 -7 22 -24 27 -39 11 -28 10 -29 -57 -42 -51 -10 -34
-31 23 -27 36 3 46 1 43 -10 -3 -7 -21 -16 -42 -19 -28 -5 -43 -1 -62 13 -40
32 -29 109 19 128 29 11 29 11 49 -4z m-657 -137 c9 -76 12 -84 33 -87 26 -4
29 -19 5 -25 -58 -16 -93 -17 -93 -4 0 8 10 17 21 20 20 5 21 11 15 53 -3 26
-6 57 -6 70 0 19 -5 24 -25 24 -32 0 -34 27 -2 33 39 7 42 2 52 -84z m-485 1
c0 -5 7 -10 15 -10 19 0 20 -16 2 -27 -23 -14 -27 -52 -7 -63 25 -13 50 -39
50 -51 0 -6 -18 -28 -40 -50 -36 -36 -42 -39 -56 -25 -8 9 -20 16 -25 16 -5 0
-9 6 -9 14 0 9 7 12 20 9 14 -4 20 0 20 10 0 8 3 22 6 31 4 10 -5 20 -25 31
-41 21 -40 51 2 91 34 34 47 40 47 24z m130 -11 c0 -19 4 -21 35 -16 45 7 50
-21 5 -29 -24 -5 -30 -12 -30 -31 0 -41 18 -65 47 -61 35 4 41 -18 8 -26 -53
-13 -75 9 -75 77 0 22 -4 27 -25 27 -30 0 -33 20 -5 27 13 3 20 14 20 29 0 13
5 24 10 24 6 0 10 -10 10 -21z m229 -3 c7 -8 14 -29 17 -48 7 -39 -23 -85 -59
-90 -17 -2 -22 -10 -22 -32 -1 -16 -6 -31 -12 -33 -12 -4 -19 28 -29 136 -7
71 -6 73 14 67 11 -4 23 -2 27 4 9 15 51 12 64 -4z m-909 -128 c0 -25 3 -29
18 -23 40 17 60 17 70 -2 15 -28 26 -123 14 -123 -6 0 -13 22 -17 49 -8 62
-23 76 -54 55 -18 -13 -22 -25 -21 -63 2 -62 2 -67 -9 -55 -13 14 -25 208 -12
199 6 -3 11 -20 11 -37z m253 4 c29 -31 31 -74 7 -105 -41 -52 -110 -26 -110
42 1 68 64 106 103 63z m-329 -51 c3 -5 -9 -12 -28 -15 -25 -5 -37 -14 -46
-37 -12 -27 -11 -33 7 -50 16 -16 24 -18 46 -10 21 8 27 8 27 -3 0 -28 -59
-35 -84 -10 -23 22 -20 86 4 112 21 22 64 30 74 13z m8526 -31 c-25 -47 -3
-138 45 -186 14 -14 25 -30 23 -35 -5 -15 -69 52 -84 88 -25 58 -12 175 17
158 6 -4 5 -13 -1 -25z m-8690 -17 c27 -35 22 -46 -26 -57 -68 -15 -68 -14
-53 -32 9 -11 22 -13 51 -9 22 4 38 3 38 -3 0 -13 -25 -22 -60 -22 -58 0 -80
80 -35 125 31 32 58 32 85 -2z m8595 -63 c23 -25 14 -36 -14 -18 -17 11 -23
10 -37 -3 -13 -14 -14 -23 -4 -59 6 -23 9 -44 6 -47 -3 -3 -8 0 -10 8 -2 8
-11 36 -20 63 -20 61 -20 60 0 52 8 -3 22 1 30 9 20 20 27 19 49 -5z m-136
-46 c21 -27 20 -44 -4 -44 -8 0 -26 -5 -42 -11 -26 -9 -26 -11 -10 -21 11 -5
32 -7 49 -4 21 4 28 2 26 -7 -7 -18 -72 -21 -87 -3 -19 22 -25 84 -11 101 19
23 56 18 79 -11z m-116 -86 c4 -28 2 -38 -8 -38 -16 0 -28 27 -15 35 5 3 7 29
5 58 -4 44 -3 47 4 17 5 -19 11 -52 14 -72z m-333 13 c11 -37 20 -73 20 -80 0
-6 9 -11 20 -11 11 0 20 -4 20 -9 0 -10 -34 -21 -67 -21 -28 0 -30 16 -4 23
19 5 19 6 2 73 -14 57 -21 70 -39 72 -30 5 -28 22 3 22 21 0 27 -8 45 -69z
m230 15 c10 -24 23 -47 29 -50 14 -9 14 -39 0 -34 -9 3 -59 109 -59 125 0 15
14 -5 30 -41z m-7587 -9 c38 -47 47 -118 23 -181 -17 -45 -46 -80 -46 -57 0 7
6 24 14 39 35 69 27 146 -19 196 -14 15 -25 32 -25 37 0 18 23 4 53 -34z
m7517 33 c10 -5 24 -26 30 -45 10 -30 9 -40 -4 -60 -30 -46 -86 -25 -101 38
-5 18 -2 35 9 52 18 27 36 31 66 15z m120 -14 c0 -8 -4 -18 -10 -21 -5 -3 -10
3 -10 14 0 12 5 21 10 21 6 0 10 -6 10 -14z m-7792 -42 c-36 -60 -22 -163 26
-203 9 -8 16 -21 16 -30 -1 -28 -79 68 -86 106 -9 47 1 97 26 138 28 46 45 35
18 -11z m330 3 c2 -12 -3 -17 -17 -17 -12 0 -21 6 -21 13 0 31 32 34 38 4z
m6875 -8 c5 -17 11 -20 31 -15 36 9 42 -10 6 -22 -27 -10 -28 -13 -20 -43 12
-41 18 -47 55 -51 l30 -4 -25 -11 c-36 -15 -58 1 -71 52 -8 33 -16 45 -30 45
-23 0 -25 16 -3 24 10 4 13 13 9 26 -3 11 -2 20 3 20 5 0 12 -10 15 -21z m206
-15 c25 -32 27 -71 4 -96 -35 -39 -94 -6 -96 54 -2 68 53 92 92 42z m-486 -44
c4 -16 11 -19 36 -14 41 8 41 -12 1 -21 -26 -6 -29 -10 -24 -33 12 -48 24 -63
49 -60 13 2 24 -1 25 -7 0 -5 -15 -10 -32 -10 -30 0 -34 4 -48 47 -10 33 -20
48 -32 48 -22 0 -23 16 -2 24 10 4 13 13 9 26 -3 11 -2 20 3 20 5 0 12 -9 15
-20z m203 6 c16 -17 19 -36 4 -36 -5 0 -10 5 -10 10 0 17 -38 11 -48 -7 -6
-10 -6 -29 -1 -47 5 -17 9 -37 9 -45 0 -28 -15 1 -31 60 -14 51 -14 59 -2 55
8 -3 21 1 29 9 19 19 32 19 50 1z m-6778 -50 c5 -43 -44 -86 -63 -55 -4 6 2
13 14 16 22 6 28 27 11 38 -8 5 -7 11 1 21 17 21 33 12 37 -20z m6482 -11 c11
-13 8 -15 -19 -15 -43 0 -41 -26 4 -34 42 -8 65 -41 43 -63 -19 -19 -70 -22
-76 -4 -2 8 0 11 6 7 14 -8 65 12 57 23 -3 5 -18 12 -34 16 -67 14 -66 72 0
84 4 0 12 -6 19 -14z m-304 -81 c-5 -13 -10 -14 -18 -6 -6 6 -8 18 -4 28 5 13
10 14 18 6 6 -6 8 -18 4 -28z m-438 -32 c4 -37 -13 -43 -22 -9 -9 35 -7 49 7
45 6 -3 13 -19 15 -36z"/>
<path d="M3320 6028 c0 -7 -3 -23 -6 -35 -5 -20 -2 -23 20 -23 29 0 31 7 14
45 -12 26 -28 34 -28 13z"/>
<path d="M3020 5985 c0 -27 26 -35 47 -14 17 17 4 39 -23 39 -19 0 -24 -5 -24
-25z"/>
<path d="M1860 5855 c0 -20 5 -25 24 -25 26 0 51 24 41 40 -3 5 -19 10 -36 10
-24 0 -29 -4 -29 -25z"/>
<path d="M1420 5785 c-11 -13 -8 -15 25 -15 25 0 35 4 33 13 -7 18 -43 20 -58
2z"/>
<path d="M5872 5788 c-17 -17 -15 -64 4 -82 36 -36 80 -8 69 44 -9 42 -48 63
-73 38z"/>
<path d="M693 5712 c-29 -4 -42 -47 -20 -69 22 -23 57 -1 57 37 0 33 -6 38
-37 32z"/>
<path d="M5466 5741 c-11 -18 6 -42 28 -39 29 4 29 42 -1 46 -11 2 -24 -1 -27
-7z"/>
<path d="M820 5715 c-12 -15 -10 -16 26 -13 42 3 50 21 11 26 -13 2 -30 -4
-37 -13z"/>
<path d="M4938 5682 c-11 -2 -18 -13 -18 -28 0 -22 4 -25 28 -22 19 2 28 9 30
24 3 23 -12 33 -40 26z"/>
<path d="M4644 5635 c-9 -22 9 -37 37 -33 16 2 24 10 24 23 0 26 -52 35 -61
10z"/>
<path d="M6207 5524 c-12 -13 -8 -51 8 -64 21 -18 47 5 43 39 -3 26 -35 41
-51 25z"/>
<path d="M6065 5499 c-4 -6 -5 -13 -1 -16 8 -8 56 6 56 17 0 13 -47 13 -55 -1z"/>
<path d="M3394 5456 c-25 -19 -13 -30 25 -21 34 7 40 19 15 29 -20 8 -17 8
-40 -8z"/>
<path d="M5536 5437 c-21 -16 -18 -45 6 -61 26 -16 51 12 42 47 -7 30 -21 34
-48 14z"/>
<path d="M3107 5373 c-15 -14 -6 -24 20 -21 34 4 43 28 11 28 -14 0 -28 -3
-31 -7z"/>
<path d="M5397 5424 c-4 -4 -7 -11 -7 -16 0 -13 50 -6 53 7 2 12 -36 19 -46 9z"/>
<path d="M2962 5398 c-32 -32 0 -84 37 -61 24 15 21 67 -4 71 -11 1 -26 -3
-33 -10z"/>
<path d="M2660 5360 c-15 -28 4 -60 35 -60 31 0 50 32 35 60 -6 12 -21 20 -35
20 -14 0 -29 -8 -35 -20z"/>
<path d="M2076 5291 c-23 -25 -6 -61 28 -61 35 0 52 25 38 55 -14 30 -42 32
-66 6z"/>
<path d="M4427 5304 c-15 -15 -6 -24 24 -24 20 0 29 4 27 13 -5 14 -40 21 -51
11z"/>
<path d="M4157 5223 c-14 -13 -6 -24 15 -21 27 4 36 28 11 28 -11 0 -23 -3
-26 -7z"/>
<path d="M4000 5245 c-11 -13 -8 -15 25 -15 25 0 35 4 33 13 -7 18 -43 20 -58
2z"/>
<path d="M1480 5225 c-7 -8 -11 -18 -8 -20 9 -10 69 8 65 19 -6 18 -42 18 -57
1z"/>
<path d="M3715 5210 c-4 -7 -3 -16 3 -22 14 -14 47 -6 47 12 0 18 -40 26 -50
10z"/>
<path d="M3742 5123 c-23 -4 -26 -29 -4 -27 7 1 21 2 32 3 11 0 20 8 20 16 0
15 -6 16 -48 8z"/>
<path d="M10223 5214 c-8 -22 9 -48 34 -52 25 -4 37 22 23 49 -13 23 -48 25
-57 3z"/>
<path d="M9865 5176 c-22 -16 -12 -52 17 -61 27 -9 42 8 34 38 -7 30 -28 40
-51 23z"/>
<path d="M3287 5163 c-4 -3 -7 -19 -7 -34 0 -22 6 -30 24 -35 33 -8 46 2 46
36 0 33 -42 55 -63 33z"/>
<path d="M9236 5084 c-3 -8 -1 -24 4 -35 20 -36 60 -16 52 27 -5 28 -46 34
-56 8z"/>
<path d="M9367 5113 c-14 -13 -6 -23 17 -23 30 0 42 15 20 24 -20 8 -29 8 -37
-1z"/>
<path d="M2404 5085 c-8 -20 2 -45 19 -45 7 0 22 6 32 14 16 12 17 16 6 30
-17 20 -50 21 -57 1z"/>
<path d="M8990 5055 c-20 -24 3 -67 33 -63 25 3 35 41 17 64 -16 18 -34 18
-50 -1z"/>
<path d="M2107 5054 c-4 -4 -7 -16 -7 -26 0 -16 6 -19 33 -16 24 2 32 8 32 23
0 14 -8 21 -25 23 -14 2 -29 0 -33 -4z"/>
<path d="M8361 4966 c-18 -22 3 -66 28 -59 25 6 31 22 20 51 -9 25 -31 29 -48
8z"/>
<path d="M8102 4934 c-14 -24 -2 -64 18 -64 29 0 45 27 32 55 -13 28 -37 33
-50 9z"/>
<path d="M7837 4903 c-12 -11 -7 -41 9 -57 19 -20 54 -5 54 22 0 32 -43 56
-63 35z"/>
<path d="M7310 4825 c-10 -12 -9 -20 4 -40 19 -29 25 -30 51 -11 17 12 18 18
7 40 -13 29 -43 34 -62 11z"/>
<path d="M4657 4764 c-16 -16 -5 -25 26 -22 17 2 31 8 30 13 -3 12 -46 19 -56
9z"/>
<path d="M6780 4755 c-11 -13 -8 -15 20 -15 21 0 30 4 28 13 -7 18 -33 20 -48
2z"/>
<path d="M4248 4709 c-35 -20 -20 -78 18 -71 28 5 43 45 24 67 -15 17 -19 18
-42 4z"/>
<path d="M6388 4712 c-10 -2 -18 -10 -18 -19 0 -11 6 -14 23 -9 12 3 25 6 30
6 12 0 8 18 -5 22 -7 2 -21 3 -30 0z"/>
<path d="M3800 4645 c-17 -20 -4 -65 18 -65 26 0 42 20 42 52 0 23 -4 28 -24
28 -13 0 -29 -7 -36 -15z"/>
<path d="M6107 4674 c-17 -17 -6 -30 23 -26 17 2 29 9 27 16 -4 13 -40 20 -50
10z"/>
<path d="M3510 4605 c-15 -18 -10 -45 12 -58 23 -15 48 8 48 44 0 24 -4 29
-24 29 -13 0 -29 -7 -36 -15z"/>
<path d="M3657 4634 c-15 -16 -5 -24 29 -24 24 0 34 4 32 13 -5 13 -50 22 -61
11z"/>
<path d="M5694 4606 c-3 -8 -4 -25 -2 -38 2 -17 9 -23 28 -23 22 0 25 4 25 35
0 29 -4 36 -23 38 -13 2 -24 -3 -28 -12z"/>
<path d="M3370 4535 c0 -8 8 -15 19 -15 10 0 24 7 31 15 11 13 8 15 -19 15
-21 0 -31 -5 -31 -15z"/>
<path d="M5428 4582 c-10 -2 -18 -10 -18 -19 0 -11 6 -14 23 -9 12 3 25 6 30
6 12 0 8 18 -5 22 -7 2 -21 3 -30 0z"/>
<path d="M3214 4566 c-9 -23 -1 -48 19 -60 25 -16 52 4 52 40 0 25 -4 29 -33
32 -22 2 -34 -2 -38 -12z"/>
<path d="M2627 4492 c-10 -10 -17 -24 -17 -30 0 -15 29 -42 45 -42 7 0 21 7
29 16 9 8 16 22 16 29 0 17 -27 45 -44 45 -7 0 -20 -8 -29 -18z"/>
<path d="M4710 4475 c-12 -15 -10 -16 21 -13 37 3 46 21 13 26 -11 2 -27 -4
-34 -13z"/>
<path d="M2033 4423 c-7 -2 -13 -11 -13 -20 0 -11 7 -13 33 -8 38 9 41 11 32
24 -6 11 -31 13 -52 4z"/>
<path d="M4134 4395 c-9 -23 4 -65 20 -65 21 0 48 30 42 47 -3 8 -6 19 -6 24
0 15 -50 10 -56 -6z"/>
<path d="M3986 4375 c-5 -13 0 -16 27 -13 37 3 39 21 4 26 -15 2 -27 -3 -31
-13z"/>
<path d="M1570 4355 c-7 -8 -10 -18 -7 -21 10 -10 68 7 64 19 -6 19 -42 20
-57 2z"/>
<path d="M3550 4311 c-21 -40 20 -77 58 -52 8 5 12 21 10 37 -2 23 -9 30 -30
32 -19 2 -30 -3 -38 -17z"/>
<path d="M2522 4178 c-32 -32 0 -84 37 -61 24 15 21 67 -4 71 -11 1 -26 -3
-33 -10z"/>
<path d="M2222 4138 c-6 -6 -12 -25 -12 -40 0 -23 4 -28 24 -28 30 0 49 22 44
52 -3 26 -36 36 -56 16z"/>
<path d="M2704 3906 c-26 -19 -15 -27 29 -19 30 4 35 8 26 19 -15 18 -30 18
-55 0z"/>
<path d="M2568 3889 c-12 -6 -18 -22 -18 -44 0 -31 3 -35 25 -35 32 0 51 34
36 66 -12 26 -18 28 -43 13z"/>
<path d="M2412 3869 c-18 -7 -23 -15 -20 -35 7 -56 69 -57 76 -1 4 32 -23 49
-56 36z"/>
<path d="M2102 3818 c-7 -7 -12 -25 -12 -40 0 -24 4 -28 30 -28 23 0 31 5 36
25 3 14 4 32 0 40 -7 18 -37 20 -54 3z"/>
<path d="M8252 3818 c-14 -14 -15 -47 -3 -67 15 -23 51 -4 51 28 0 25 -15 51
-30 51 -3 0 -11 -5 -18 -12z"/>
<path d="M7985 3774 c-18 -18 -18 -16 -5 -48 17 -46 68 -20 56 28 -7 30 -31
40 -51 20z"/>
<path d="M6890 3605 c-16 -19 1 -65 24 -65 22 0 39 28 32 55 -7 28 -36 34 -56
10z"/>
<path d="M7027 3633 c-15 -14 -6 -23 23 -23 20 0 30 5 30 15 0 15 -40 21 -53
8z"/>
<path d="M6767 3543 c-14 -13 -6 -23 18 -23 16 0 25 6 25 15 0 15 -31 21 -43
8z"/>
<path d="M6612 3563 c-6 -11 -6 -28 -1 -41 12 -32 62 -28 67 6 7 45 -47 72
-66 35z"/>
<path d="M6342 3528 c-30 -30 -2 -86 38 -73 34 11 22 85 -15 85 -6 0 -16 -5
-23 -12z"/>
<path d="M5927 3413 c-13 -12 -7 -23 12 -23 10 0 24 7 31 15 10 13 9 15 -12
15 -14 0 -28 -3 -31 -7z"/>
<path d="M5348 3374 c-13 -13 -14 -22 -6 -45 12 -34 28 -37 52 -10 13 14 14
24 7 45 -12 30 -30 33 -53 10z"/>
<path d="M5490 3395 c-17 -20 -11 -24 23 -18 15 3 26 11 24 17 -6 18 -33 18
-47 1z"/>
<path d="M6102 2558 c-15 -15 -16 -64 -2 -73 16 -10 48 5 55 25 7 23 -10 60
-28 60 -7 0 -18 -5 -25 -12z"/>
<path d="M5806 2504 c-16 -42 0 -76 32 -68 42 12 40 84 -3 84 -12 0 -26 -7
-29 -16z"/>
<path d="M5523 2473 c-7 -2 -13 -13 -13 -24 0 -14 7 -19 26 -19 20 0 25 4 22
22 -3 23 -15 30 -35 21z"/>
<path d="M5538 2363 c-20 -5 -25 -33 -5 -33 29 0 57 13 57 26 0 14 -18 16 -52
7z"/>
<path d="M8737 2423 c-27 -7 -17 -38 13 -38 18 0 25 5 25 19 0 21 -10 26 -38
19z"/>
<path d="M8742 2333 c4 -33 37 -43 58 -18 17 20 -3 45 -37 45 -21 0 -24 -4
-21 -27z"/>
<path d="M4918 2354 c-9 -18 -9 -30 -1 -42 22 -36 73 -21 73 22 0 48 -53 63
-72 20z"/>
<path d="M8452 2372 c-9 -6 -10 -16 -3 -38 5 -16 12 -41 15 -56 12 -53 66 -29
66 29 0 51 -43 87 -78 65z"/>
<path d="M7917 2282 c-15 -3 -17 -10 -12 -30 4 -15 8 -29 11 -31 9 -9 54 19
54 33 0 19 -29 34 -53 28z"/>
<path d="M7497 2163 c-12 -12 -7 -60 7 -72 29 -24 61 10 50 55 -6 23 -41 34
-57 17z"/>
<path d="M7353 2135 c-8 -23 1 -28 37 -20 25 6 29 9 19 21 -15 19 -48 18 -56
-1z"/>
<path d="M8954 2095 c-4 -9 -2 -21 4 -27 15 -15 44 -1 40 19 -4 23 -36 29 -44
8z"/>
<path d="M8993 2002 c-13 -2 -23 -10 -23 -18 0 -18 61 -16 67 2 5 14 -15 21
-44 16z"/>
<path d="M6658 2023 c-25 -6 -32 -40 -14 -68 20 -31 31 -31 51 -1 12 18 13 30
6 50 -11 26 -13 27 -43 19z"/>
<path d="M6784 2035 c-9 -23 0 -28 36 -20 37 8 35 29 -3 33 -18 2 -29 -2 -33
-13z"/>
<path d="M8402 1993 c-12 -22 2 -61 23 -69 35 -14 61 46 33 74 -17 17 -46 15
-56 -5z"/>
<path d="M7845 1890 c-8 -26 2 -57 20 -64 37 -14 65 26 45 64 -14 27 -57 27
-65 0z"/>
<path d="M7433 1833 c-7 -2 -13 -12 -13 -20 0 -12 7 -14 27 -8 34 8 37 11 28
24 -6 11 -21 13 -42 4z"/>
<path d="M6277 1623 c-17 -16 -5 -29 23 -25 35 5 41 32 7 32 -13 0 -27 -3 -30
-7z"/>
<path d="M4104 1605 c-18 -28 -13 -69 13 -97 21 -24 39 -23 57 4 31 43 9 118
-34 118 -11 0 -27 -11 -36 -25z"/>
<path d="M6003 1520 c-32 -13 -29 -32 4 -28 17 2 29 10 31 21 4 19 -2 20 -35
7z"/>
<path d="M5692 1518 c-15 -15 -16 -43 -2 -68 13 -25 49 -14 57 18 10 43 -27
78 -55 50z"/>
<path d="M3341 1489 c-15 -6 -21 -14 -17 -25 3 -9 6 -20 6 -25 0 -14 46 -11
59 5 13 15 6 42 -12 49 -7 2 -23 0 -36 -4z"/>
<path d="M5397 1469 c-29 -17 -21 -36 13 -31 37 5 46 18 23 31 -12 6 -25 6
-36 0z"/>
<path d="M2862 1358 c-22 -22 -12 -88 13 -88 24 0 45 31 45 66 0 29 -3 34 -23
34 -13 0 -28 -5 -35 -12z"/>
<path d="M2694 1325 c-9 -23 -1 -27 40 -19 44 8 42 28 -2 32 -22 2 -34 -2 -38
-13z"/>
<path d="M4630 1325 c-7 -9 -10 -18 -7 -21 11 -11 67 8 67 22 0 19 -44 18 -60
-1z"/>
<path d="M4327 1272 c-9 -10 -17 -33 -17 -50 0 -62 65 -27 72 38 4 32 -31 39
-55 12z"/>
<path d="M1892 1188 c-14 -14 -16 -57 -3 -77 8 -12 15 -13 35 -3 26 12 43 51
32 77 -7 18 -47 20 -64 3z"/>
<path d="M4021 1216 c-7 -8 -15 -30 -18 -50 -5 -32 -3 -36 16 -36 31 0 63 36
59 68 -3 31 -37 42 -57 18z"/>
<path d="M2052 1218 c-19 -19 -14 -28 16 -28 34 0 57 14 48 29 -9 15 -49 14
-64 -1z"/>
<path d="M3718 1173 c-15 -4 -33 -31 -25 -39 9 -9 62 15 65 29 3 17 -6 19 -40
10z"/>
<path d="M1754 855 c-7 -17 4 -37 17 -30 12 8 12 45 -1 45 -6 0 -13 -7 -16
-15z"/>
<path d="M1807 784 c-11 -11 -8 -44 3 -44 15 0 24 30 13 41 -5 5 -12 6 -16 3z"/>
<path d="M2102 878 c-7 -7 -12 -29 -12 -50 0 -31 4 -38 19 -38 26 0 51 26 51
54 0 24 -17 46 -35 46 -6 0 -16 -5 -23 -12z"/>
<path d="M3745 823 c-12 -11 -14 -18 -6 -21 21 -7 63 8 58 21 -6 19 -33 20
-52 0z"/>
<path d="M2610 650 c0 -11 7 -20 15 -20 8 0 15 9 15 20 0 11 -7 20 -15 20 -8
0 -15 -9 -15 -20z"/>
<path d="M2653 574 c-8 -21 13 -42 28 -27 13 13 5 43 -11 43 -6 0 -13 -7 -17
-16z"/>
<path d="M2951 676 c-7 -8 -11 -30 -9 -48 3 -28 6 -33 28 -30 31 3 41 19 38
57 -3 34 -36 46 -57 21z"/>
<path d="M2309 573 c-9 -2 -21 -16 -28 -30 -9 -21 -9 -30 4 -49 19 -29 39 -30
65 -4 22 22 24 33 10 59 -11 21 -28 29 -51 24z"/>
<path d="M1814 479 c-23 -8 -39 -27 -31 -35 10 -10 77 8 77 21 0 18 -21 24
-46 14z"/>
<path d="M10257 366 c-8 -20 2 -25 36 -19 34 7 30 27 -5 31 -16 2 -28 -3 -31
-12z"/>
<path d="M9998 319 c-35 -20 -12 -95 27 -88 31 7 42 35 25 66 -18 31 -29 36
-52 22z"/>
<path d="M9712 258 c-17 -17 -15 -42 6 -68 16 -19 22 -21 40 -11 24 13 28 41
12 72 -12 21 -40 25 -58 7z"/>
</g>
</svg>
